999
dxfrw 0.6.3
  0
SECTION
  2
HEADER
  9
$ACADVER
  1
AC1009
  9
$DWGCODEPAGE
  3
ANSI_1252
  9
$INSBASE
 10
0
 20
0
 30
0
  9
$EXTMIN
 10
-142.7021274463983
 20
-89.99999999999999
 30
0
  9
$EXTMAX
 10
133.1088437857962
 20
20.00000000000004
 30
0
  9
$LIMMIN
 10
0
 20
0
  9
$LIMMAX
 10
12
 20
9
  9
$ORTHOMODE
 70
    0
  9
$REGENMODE
 70
    1
  9
$FILLMODE
 70
    1
  9
$QTEXTMODE
 70
    0
  9
$MIRRTEXT
 70
    0
  9
$DRAGMODE
 70
    2
  9
$LTSCALE
 40
1
  9
$OSMODE
 70
    0
  9
$ATTMODE
 70
    1
  9
$TEXTSIZE
 40
0.2
  9
$TRACEWID
 40
0.05
  9
$TEXTSTYLE
  7
STANDARD
  9
$CLAYER
  8
0
  9
$CELTYPE
  6
BYLAYER
  9
$CECOLOR
 62
  256
  9
$DIMSCALE
 40
1
  9
$DIMASZ
 40
2.5
  9
$DIMEXO
 40
0.625
  9
$DIMDLI
 40
5
  9
$DIMRND
 40
0
  9
$DIMDLE
 40
0
  9
$DIMEXE
 40
1.25
  9
$DIMTP
 40
0
  9
$DIMTM
 40
0
  9
$DIMTXT
 40
2.5
  9
$DIMCEN
 40
0.09
  9
$DIMTSZ
 40
0
  9
$DIMTOL
 70
    0
  9
$DIMLIM
 70
    0
  9
$DIMTIH
 70
    0
  9
$DIMTOH
 70
    1
  9
$DIMSE1
 70
    0
  9
$DIMSE2
 70
    0
  9
$DIMTAD
 70
    1
  9
$DIMZIN
 70
    8
  9
$DIMBLK
  1

  9
$DIMASO
 70
    1
  9
$DIMSHO
 70
    1
  9
$DIMPOST
  1

  9
$DIMAPOST
  1

  9
$DIMALT
 70
    0
  9
$DIMALTD
 70
    2
  9
$DIMALTF
 40
25.4
  9
$DIMLFAC
 40
1
  9
$DIMTOFL
 70
    0
  9
$DIMTVP
 40
0
  9
$DIMTIX
 70
    0
  9
$DIMSOXD
 70
    0
  9
$DIMSAH
 70
    0
  9
$DIMBLK1
  1

  9
$DIMBLK2
  1

  9
$DIMSTYLE
  2
STANDARD
  9
$DIMCLRD
 70
   18
  9
$DIMCLRE
 70
   18
  9
$DIMCLRT
 70
   18
  9
$DIMTFAC
 40
1
  9
$DIMGAP
 40
0.625
  9
$LUNITS
 70
    2
  9
$LUPREC
 70
    4
  9
$SKETCHINC
 40
0.1
  9
$FILLETRAD
 40
0.5
  9
$AUNITS
 70
    0
  9
$AUPREC
 70
    0
  9
$MENU
  1
.
  9
$ELEVATION
 40
0
  9
$PELEVATION
 40
0
  9
$THICKNESS
 40
0
  9
$LIMCHECK
 70
    0
  9
$BLIPMODE
 70
    0
  9
$CHAMFERA
 40
0
  9
$CHAMFERB
 40
0
  9
$SKPOLY
 70
    0
  9
$USRTIMER
 70
    1
  9
$ANGBASE
 50
0
  9
$ANGDIR
 70
    0
  9
$PDMODE
 70
    0
  9
$PDSIZE
 40
0
  9
$PLINEWID
 40
0
  9
$COORDS
 70
    2
  9
$SPLFRAME
 70
    0
  9
$SPLINETYPE
 70
    6
  9
$SPLINESEGS
 70
    8
  9
$ATTDIA
 70
    1
  9
$ATTREQ
 70
    1
  9
$HANDLING
 70
    1
  9
$HANDSEED
  5
20000
  9
$SURFTAB1
 70
    6
  9
$SURFTAB2
 70
    6
  9
$SURFTYPE
 70
    6
  9
$SURFU
 70
    6
  9
$SURFV
 70
    6
  9
$UCSNAME
  2

  9
$UCSORG
 10
0
 20
0
 30
0
  9
$UCSXDIR
 10
1
 20
0
 30
0
  9
$UCSYDIR
 10
0
 20
1
 30
0
  9
$PUCSNAME
  2

  9
$PUCSORG
 10
0
 20
0
 30
0
  9
$PUCSXDIR
 10
1
 20
0
 30
0
  9
$PUCSYDIR
 10
0
 20
1
 30
0
  9
$USERI1
 70
    0
  9
$USERI2
 70
    0
  9
$USERI3
 70
    0
  9
$USERI4
 70
    0
  9
$USERI5
 70
    0
  9
$USERR1
 40
0
  9
$USERR2
 40
0
  9
$USERR3
 40
0
  9
$USERR4
 40
0
  9
$USERR5
 40
0
  9
$WORLDVIEW
 70
    1
  9
$SHADEDGE
 70
    3
  9
$SHADEDIF
 70
   70
  9
$TILEMODE
 70
    1
  9
$MAXACTVP
 70
   64
  9
$PLIMCHECK
 70
    0
  9
$PEXTMIN
 10
0
 20
0
 30
0
  9
$PEXTMAX
 10
0
 20
0
 30
0
  9
$GRIDMODE
 70
    0
  9
$SNAPSTYLE
 70
    0
  9
$PLIMMIN
 10
0
 20
0
  9
$PLIMMAX
 10
297
 20
210
  9
$UNITMODE
 70
    0
  9
$VISRETAIN
 70
    1
  9
$PLINEGEN
 70
    0
  9
$PSLTSCALE
 70
    1
  0
ENDSEC
  0
SECTION
  2
TABLES
  0
TABLE
  2
VPORT
 70
    1
  0
VPORT
  2
*ACTIVE
 70
    0
 10
0
 20
0
 11
1
 21
1
 12
68.28329870311612
 22
31.79859498429427
 13
0
 23
0
 14
10
 24
10
 15
10
 25
10
 16
0
 26
0
 36
1
 17
0
 27
0
 37
0
 40
197.1512889026245
 41
1.432937181663837
 42
50
 43
0
 44
0
 50
0
 51
0
 71
    0
 72
  100
 73
    1
 74
    3
 75
    0
 76
    0
 77
    0
 78
    0
  0
ENDTAB
  0
TABLE
  2
LTYPE
 70
    4
  0
LTYPE
  2
BYBLOCK
 70
    0
  3

 72
   65
 73
    0
 40
0
  0
LTYPE
  2
BYLAYER
 70
    0
  3

 72
   65
 73
    0
 40
0
  0
LTYPE
  2
CONTINUOUS
 70
    0
  3
Solid line
 72
   65
 73
    0
 40
0
  0
LTYPE
  2
DOT
 70
    0
  3
Dot . . . . . . . . . . . . . . . . . . . . . .
 72
   65
 73
    2
 40
6.35
 49
0
 49
-6.35
  0
LTYPE
  2
DOTTINY
 70
    0
  3
Dot (.15x) .....................................
 72
   65
 73
    2
 40
0.9525
 49
0
 49
-0.9525
  0
LTYPE
  2
DOT2
 70
    0
  3
Dot (.5x) .....................................
 72
   65
 73
    2
 40
3.175
 49
0
 49
-3.175
  0
LTYPE
  2
DOTX2
 70
    0
  3
Dot (2x) .  .  .  .  .  .  .  .  .  .  .  .  .
 72
   65
 73
    2
 40
12.7
 49
0
 49
-12.7
  0
LTYPE
  2
DASHED
 70
    0
  3
Dashed _ _ _ _ _ _ _ _ _ _ _ _ _ _ _ _ _
 72
   65
 73
    2
 40
19.05
 49
12.7
 49
-6.35
  0
LTYPE
  2
DASHEDTINY
 70
    0
  3
Dashed (.15x) _ _ _ _ _ _ _ _ _ _ _ _ _ _ _ _ _
 72
   65
 73
    2
 40
2.8575
 49
1.905
 49
-0.9525
  0
LTYPE
  2
DASHED2
 70
    0
  3
Dashed (.5x) _ _ _ _ _ _ _ _ _ _ _ _ _ _ _ _ _
 72
   65
 73
    2
 40
9.524999999999999
 49
6.35
 49
-3.175
  0
LTYPE
  2
DASHEDX2
 70
    0
  3
Dashed (2x) ____  ____  ____  ____  ____  ___
 72
   65
 73
    2
 40
38.09999999999999
 49
25.4
 49
-12.7
  0
LTYPE
  2
DASHDOT
 70
    0
  3
Dash dot __ . __ . __ . __ . __ . __ . __ . __
 72
   65
 73
    4
 40
25.4
 49
12.7
 49
-6.35
 49
0
 49
-6.35
  0
LTYPE
  2
DASHDOTTINY
 70
    0
  3
Dash dot (.15x) _._._._._._._._._._._._._._._.
 72
   65
 73
    4
 40
3.81
 49
1.905
 49
-0.9525
 49
0
 49
-0.9525
  0
LTYPE
  2
DASHDOT2
 70
    0
  3
Dash dot (.5x) _._._._._._._._._._._._._._._.
 72
   65
 73
    4
 40
12.7
 49
6.35
 49
-3.175
 49
0
 49
-3.175
  0
LTYPE
  2
DASHDOTX2
 70
    0
  3
Dash dot (2x) ____  .  ____  .  ____  .  ___
 72
   65
 73
    4
 40
50.8
 49
25.4
 49
-12.7
 49
0
 49
-12.7
  0
LTYPE
  2
DIVIDE
 70
    0
  3
Divide ____ . . ____ . . ____ . . ____ . . ____
 72
   65
 73
    6
 40
31.75
 49
12.7
 49
-6.35
 49
0
 49
-6.35
 49
0
 49
-6.35
  0
LTYPE
  2
DIVIDETINY
 70
    0
  3
Divide (.15x) __..__..__..__..__..__..__..__.._
 72
   65
 73
    6
 40
4.7625
 49
1.905
 49
-0.9525
 49
0
 49
-0.9525
 49
0
 49
-0.9525
  0
LTYPE
  2
DIVIDE2
 70
    0
  3
Divide (.5x) __..__..__..__..__..__..__..__.._
 72
   65
 73
    6
 40
15.875
 49
6.35
 49
-3.175
 49
0
 49
-3.175
 49
0
 49
-3.175
  0
LTYPE
  2
DIVIDEX2
 70
    0
  3
Divide (2x) ________  .  .  ________  .  .  _
 72
   65
 73
    6
 40
63.5
 49
25.4
 49
-12.7
 49
0
 49
-12.7
 49
0
 49
-12.7
  0
LTYPE
  2
BORDER
 70
    0
  3
Border __ __ . __ __ . __ __ . __ __ . __ __ .
 72
   65
 73
    6
 40
44.45
 49
12.7
 49
-6.35
 49
12.7
 49
-6.35
 49
0
 49
-6.35
  0
LTYPE
  2
BORDERTINY
 70
    0
  3
Border (.15x) __.__.__.__.__.__.__.__.__.__.__.
 72
   65
 73
    6
 40
6.6675
 49
1.905
 49
-0.9525
 49
1.905
 49
-0.9525
 49
0
 49
-0.9525
  0
LTYPE
  2
BORDER2
 70
    0
  3
Border (.5x) __.__.__.__.__.__.__.__.__.__.__.
 72
   65
 73
    6
 40
22.225
 49
6.35
 49
-3.175
 49
6.35
 49
-3.175
 49
0
 49
-3.175
  0
LTYPE
  2
BORDERX2
 70
    0
  3
Border (2x) ____  ____  .  ____  ____  .  ___
 72
   65
 73
    6
 40
88.89999999999999
 49
25.4
 49
-12.7
 49
25.4
 49
-12.7
 49
0
 49
-12.7
  0
LTYPE
  2
CENTER
 70
    0
  3
Center ____ _ ____ _ ____ _ ____ _ ____ _ ____
 72
   65
 73
    4
 40
50.8
 49
31.75
 49
-6.35
 49
6.35
 49
-6.35
  0
LTYPE
  2
CENTERTINY
 70
    0
  3
Center (.15x) ___ _ ___ _ ___ _ ___ _ ___ _ ___
 72
   65
 73
    4
 40
7.619999999999999
 49
4.7625
 49
-0.9525
 49
0.9525
 49
-0.9525
  0
LTYPE
  2
CENTER2
 70
    0
  3
Center (.5x) ___ _ ___ _ ___ _ ___ _ ___ _ ___
 72
   65
 73
    4
 40
28.575
 49
19.05
 49
-3.175
 49
3.175
 49
-3.175
  0
LTYPE
  2
CENTERX2
 70
    0
  3
Center (2x) ________  __  ________  __  _____
 72
   65
 73
    4
 40
101.6
 49
63.5
 49
-12.7
 49
12.7
 49
-12.7
  0
ENDTAB
  0
TABLE
  2
LAYER
 70
    1
  0
LAYER
  2
0
 70
    0
 62
    7
  6
CONTINUOUS
  0
ENDTAB
  0
TABLE
  2
STYLE
 70
    3
  0
STYLE
  2
STANDARD
 70
    0
 40
0
 41
1
 50
0
 71
    0
 42
1
  3
TXT
  4

  0
ENDTAB
  0
TABLE
  2
VIEW
 70
    0
  0
ENDTAB
  0
TABLE
  2
UCS
 70
    0
  0
ENDTAB
  0
TABLE
  2
APPID
 70
    1
  0
APPID
  2
ACAD
 70
    0
  0
APPID
  2
LIBRECAD
 70
    0
  0
ENDTAB
  0
TABLE
  2
DIMSTYLE
 70
    1
  0
DIMSTYLE
  2
STANDARD
 70
    0
  3

  4

  5

  6

  7

 40
1
 41
2.5
 42
0.625
 43
0.38
 44
1.25
 45
0
 46
0
 47
0
 48
0
 49
1
140
2.5
141
0.09
142
0
143
25.4
144
1
145
0
146
1
147
0.625
 71
    0
 72
    0
 73
    0
 74
    1
 75
    0
 76
    0
 77
    0
 78
    8
170
    0
171
    2
172
    0
173
    0
174
    0
175
    0
176
   18
177
   18
178
   18
  0
ENDTAB
  0
ENDSEC
  0
SECTION
  2
BLOCKS
  0
BLOCK
  8
0
  2
$MODEL_SPACE
 70
    0
 10
0
 20
0
 30
0
  3
$MODEL_SPACE
  1

  0
ENDBLK
  8
0
  0
BLOCK
  8
0
  2
$PAPER_SPACE
 70
    0
 10
0
 20
0
 30
0
  3
$PAPER_SPACE
  1

  0
ENDBLK
  8
0
  0
BLOCK
  8
0
  2
*D3
 70
    0
 10
0
 20
0
  3
*D3
  1

  0
ENDBLK
  8
0
  0
BLOCK
  8
0
  2
*D5
 70
    0
 10
0
 20
0
  3
*D5
  1

  0
ENDBLK
  8
0
  0
BLOCK
  8
0
  2
*D6
 70
    0
 10
0
 20
0
  3
*D6
  1

  0
ENDBLK
  8
0
  0
BLOCK
  8
0
  2
*D1
 70
    0
 10
0
 20
0
  3
*D1
  1

  0
ENDBLK
  8
0
  0
BLOCK
  8
0
  2
*D2
 70
    0
 10
0
 20
0
  3
*D2
  1

  0
ENDBLK
  8
0
  0
BLOCK
  8
0
  2
*D4
 70
    0
 10
0
 20
0
  3
*D4
  1

  0
ENDBLK
  8
0
  0
BLOCK
  8
0
  2
CARTRIDGE
 70
    0
 10
0
 20
0
  3
CARTRIDGE
  1

  0
POLYLINE
  5
31
  8
0
  6
BYLAYER
 62
  256
 66
    1
 10
0
 20
0
 30
0
 70
    0
  0
VERTEX
  5
32
  8
0
  6
BYLAYER
 62
  256
 10
105.7524309903379
 20
-59.25245306723752
 30
0
  0
VERTEX
  5
33
  8
0
  6
BYLAYER
 62
  256
 10
105.7524309903379
 20
-4.067447867237426
 30
0
  0
SEQEND
  5
34
  8
0
  6
BYLAYER
 62
  256
  0
POLYLINE
  5
35
  8
0
  6
BYLAYER
 62
  256
 66
    1
 10
0
 20
0
 30
0
 70
    0
  0
VERTEX
  5
36
  8
0
  6
BYLAYER
 62
  256
 10
91.78243099033789
 20
-69.41245306723749
 30
0
  0
VERTEX
  5
37
  8
0
  6
BYLAYER
 62
  256
 10
91.78243099033789
 20
-59.25245306723752
 30
0
  0
SEQEND
  5
38
  8
0
  6
BYLAYER
 62
  256
  0
POLYLINE
  5
39
  8
0
  6
BYLAYER
 62
  256
 66
    1
 10
0
 20
0
 30
0
 70
    0
  0
VERTEX
  5
3A
  8
0
  6
BYLAYER
 62
  256
 10
27.0124309903379
 20
-59.25245306723752
 30
0
  0
VERTEX
  5
3B
  8
0
  6
BYLAYER
 62
  256
 10
27.0124309903379
 20
-69.41245306723749
 30
0
  0
SEQEND
  5
3C
  8
0
  6
BYLAYER
 62
  256
  0
POLYLINE
  5
3D
  8
0
  6
BYLAYER
 62
  256
 66
    1
 10
0
 20
0
 30
0
 70
    0
  0
VERTEX
  5
3E
  8
0
  6
BYLAYER
 62
  256
 10
14.31243099033786
 20
-46.55245306723747
 30
0
  0
VERTEX
  5
3F
  8
0
  6
BYLAYER
 62
  256
 10
14.31243099033786
 20
-59.25245306723752
 30
0
  0
SEQEND
  5
40
  8
0
  6
BYLAYER
 62
  256
  0
POLYLINE
  5
41
  8
0
  6
BYLAYER
 62
  256
 66
    1
 10
0
 20
0
 30
0
 70
    0
  0
VERTEX
  5
42
  8
0
  6
BYLAYER
 62
  256
 10
4.152430990337891
 20
-4.067422467237513
 30
0
  0
VERTEX
  5
43
  8
0
  6
BYLAYER
 62
  256
 10
4.152430990337891
 20
-46.55245306723747
 30
0
  0
SEQEND
  5
44
  8
0
  6
BYLAYER
 62
  256
  0
POLYLINE
  5
45
  8
0
  6
BYLAYER
 62
  256
 66
    1
 10
0
 20
0
 30
0
 70
    0
  0
VERTEX
  5
46
  8
0
  6
BYLAYER
 62
  256
 10
14.31243099033786
 20
-46.55245306723747
 30
0
  0
VERTEX
  5
47
  8
0
  6
BYLAYER
 62
  256
 10
4.152430990337891
 20
-46.55245306723747
 30
0
  0
SEQEND
  5
48
  8
0
  6
BYLAYER
 62
  256
  0
POLYLINE
  5
49
  8
0
  6
BYLAYER
 62
  256
 66
    1
 10
0
 20
0
 30
0
 70
    0
  0
VERTEX
  5
4A
  8
0
  6
BYLAYER
 62
  256
 10
27.0124309903379
 20
-59.25245306723752
 30
0
  0
VERTEX
  5
4B
  8
0
  6
BYLAYER
 62
  256
 10
14.31243099033786
 20
-59.25245306723752
 30
0
  0
SEQEND
  5
4C
  8
0
  6
BYLAYER
 62
  256
  0
POLYLINE
  5
4D
  8
0
  6
BYLAYER
 62
  256
 66
    1
 10
0
 20
0
 30
0
 70
    0
  0
VERTEX
  5
4E
  8
0
  6
BYLAYER
 62
  256
 10
91.78243099033789
 20
-69.41245306723749
 30
0
  0
VERTEX
  5
4F
  8
0
  6
BYLAYER
 62
  256
 10
27.02543579033799
 20
-69.41245306723749
 30
0
  0
SEQEND
  5
50
  8
0
  6
BYLAYER
 62
  256
  0
POLYLINE
  5
51
  8
0
  6
BYLAYER
 62
  256
 66
    1
 10
0
 20
0
 30
0
 70
    0
  0
VERTEX
  5
52
  8
0
  6
BYLAYER
 62
  256
 10
105.6724717903378
 20
-59.25245306723752
 30
0
  0
VERTEX
  5
53
  8
0
  6
BYLAYER
 62
  256
 10
91.78243099033789
 20
-59.25245306723752
 30
0
  0
SEQEND
  5
54
  8
0
  6
BYLAYER
 62
  256
  0
POLYLINE
  5
55
  8
0
  6
BYLAYER
 62
  256
 66
    1
 10
0
 20
0
 30
0
 70
    0
  0
VERTEX
  5
56
  8
0
  6
BYLAYER
 62
  256
 10
4.152430990337891
 20
-4.067422467237513
 30
0
  0
VERTEX
  5
57
  8
0
  6
BYLAYER
 62
  256
 10
105.7524309903379
 20
-4.067422467237513
 30
0
  0
SEQEND
  5
58
  8
0
  6
BYLAYER
 62
  256
  0
POLYLINE
  5
59
  8
0
  6
BYLAYER
 62
  256
 66
    1
 10
0
 20
0
 30
0
 70
    0
  0
VERTEX
  5
5A
  8
0
  6
BYLAYER
 62
  256
 10
4.157383990337891
 20
-4.067422467237513
 30
0
  0
VERTEX
  5
5B
  8
0
  6
BYLAYER
 62
  256
 10
105.747427190338
 20
-4.067422467237513
 30
0
  0
SEQEND
  5
5C
  8
0
  6
BYLAYER
 62
  256
  0
POLYLINE
  5
5D
  8
0
  6
BYLAYER
 62
  256
 66
    1
 10
0
 20
0
 30
0
 70
    0
  0
VERTEX
  5
5E
  8
0
  6
BYLAYER
 62
  256
 10
105.7524309903379
 20
-4.067447867237426
 30
0
  0
VERTEX
  5
5F
  8
0
  6
BYLAYER
 62
  256
 10
105.7524309903379
 20
-59.25245306723752
 30
0
  0
VERTEX
  5
60
  8
0
  6
BYLAYER
 62
  256
 10
91.78243099033789
 20
-59.25245306723752
 30
0
  0
VERTEX
  5
61
  8
0
  6
BYLAYER
 62
  256
 10
91.78243099033789
 20
-69.41245306723749
 30
0
  0
VERTEX
  5
62
  8
0
  6
BYLAYER
 62
  256
 10
27.0124309903379
 20
-69.41245306723749
 30
0
  0
VERTEX
  5
63
  8
0
  6
BYLAYER
 62
  256
 10
27.0124309903379
 20
-59.25245306723752
 30
0
  0
VERTEX
  5
64
  8
0
  6
BYLAYER
 62
  256
 10
14.31243099033786
 20
-59.25245306723752
 30
0
  0
VERTEX
  5
65
  8
0
  6
BYLAYER
 62
  256
 10
14.31243099033786
 20
-46.55245306723747
 30
0
  0
VERTEX
  5
66
  8
0
  6
BYLAYER
 62
  256
 10
4.152430990337891
 20
-46.55245306723747
 30
0
  0
VERTEX
  5
67
  8
0
  6
BYLAYER
 62
  256
 10
4.152430990337891
 20
-4.067422467237513
 30
0
  0
SEQEND
  5
68
  8
0
  6
BYLAYER
 62
  256
  0
POLYLINE
  5
69
  8
0
  6
BYLAYER
 62
  256
 66
    1
 10
0
 20
0
 30
0
 70
    1
  0
VERTEX
  5
6A
  8
0
  6
BYLAYER
 62
  256
 10
28.28243099033789
 20
-61.79245306723748
 30
0
  0
VERTEX
  5
6B
  8
0
  6
BYLAYER
 62
  256
 10
29.55243099033787
 20
-61.79245306723748
 30
0
  0
VERTEX
  5
6C
  8
0
  6
BYLAYER
 62
  256
 10
29.55243099033787
 20
-69.41245306723749
 30
0
  0
VERTEX
  5
6D
  8
0
  6
BYLAYER
 62
  256
 10
28.28243099033789
 20
-69.41245306723749
 30
0
  0
SEQEND
  5
6E
  8
0
  6
BYLAYER
 62
  256
  0
POLYLINE
  5
6F
  8
0
  6
BYLAYER
 62
  256
 66
    1
 10
0
 20
0
 30
0
 70
    1
  0
VERTEX
  5
70
  8
0
  6
BYLAYER
 62
  256
 10
30.82243099033785
 20
-61.79245306723748
 30
0
  0
VERTEX
  5
71
  8
0
  6
BYLAYER
 62
  256
 10
32.09243099033783
 20
-61.79245306723748
 30
0
  0
VERTEX
  5
72
  8
0
  6
BYLAYER
 62
  256
 10
32.09243099033783
 20
-69.41245306723749
 30
0
  0
VERTEX
  5
73
  8
0
  6
BYLAYER
 62
  256
 10
30.82243099033785
 20
-69.41245306723749
 30
0
  0
SEQEND
  5
74
  8
0
  6
BYLAYER
 62
  256
  0
POLYLINE
  5
75
  8
0
  6
BYLAYER
 62
  256
 66
    1
 10
0
 20
0
 30
0
 70
    1
  0
VERTEX
  5
76
  8
0
  6
BYLAYER
 62
  256
 10
33.36243099033781
 20
-61.79245306723748
 30
0
  0
VERTEX
  5
77
  8
0
  6
BYLAYER
 62
  256
 10
34.63243099033802
 20
-61.79245306723748
 30
0
  0
VERTEX
  5
78
  8
0
  6
BYLAYER
 62
  256
 10
34.63243099033802
 20
-69.41245306723749
 30
0
  0
VERTEX
  5
79
  8
0
  6
BYLAYER
 62
  256
 10
33.36243099033781
 20
-69.41245306723749
 30
0
  0
SEQEND
  5
7A
  8
0
  6
BYLAYER
 62
  256
  0
POLYLINE
  5
7B
  8
0
  6
BYLAYER
 62
  256
 66
    1
 10
0
 20
0
 30
0
 70
    1
  0
VERTEX
  5
7C
  8
0
  6
BYLAYER
 62
  256
 10
35.902430990338
 20
-61.79245306723748
 30
0
  0
VERTEX
  5
7D
  8
0
  6
BYLAYER
 62
  256
 10
37.17243099033799
 20
-61.79245306723748
 30
0
  0
VERTEX
  5
7E
  8
0
  6
BYLAYER
 62
  256
 10
37.17243099033799
 20
-69.41245306723749
 30
0
  0
VERTEX
  5
7F
  8
0
  6
BYLAYER
 62
  256
 10
35.902430990338
 20
-69.41245306723749
 30
0
  0
SEQEND
  5
80
  8
0
  6
BYLAYER
 62
  256
  0
POLYLINE
  5
81
  8
0
  6
BYLAYER
 62
  256
 66
    1
 10
0
 20
0
 30
0
 70
    1
  0
VERTEX
  5
82
  8
0
  6
BYLAYER
 62
  256
 10
38.44243099033797
 20
-61.79245306723748
 30
0
  0
VERTEX
  5
83
  8
0
  6
BYLAYER
 62
  256
 10
39.71243099033795
 20
-61.79245306723748
 30
0
  0
VERTEX
  5
84
  8
0
  6
BYLAYER
 62
  256
 10
39.71243099033795
 20
-69.41245306723749
 30
0
  0
VERTEX
  5
85
  8
0
  6
BYLAYER
 62
  256
 10
38.44243099033797
 20
-69.41245306723749
 30
0
  0
SEQEND
  5
86
  8
0
  6
BYLAYER
 62
  256
  0
POLYLINE
  5
87
  8
0
  6
BYLAYER
 62
  256
 66
    1
 10
0
 20
0
 30
0
 70
    1
  0
VERTEX
  5
88
  8
0
  6
BYLAYER
 62
  256
 10
40.98243099033793
 20
-61.79245306723748
 30
0
  0
VERTEX
  5
89
  8
0
  6
BYLAYER
 62
  256
 10
42.25243099033791
 20
-61.79245306723748
 30
0
  0
VERTEX
  5
8A
  8
0
  6
BYLAYER
 62
  256
 10
42.25243099033791
 20
-69.41245306723749
 30
0
  0
VERTEX
  5
8B
  8
0
  6
BYLAYER
 62
  256
 10
40.98243099033793
 20
-69.41245306723749
 30
0
  0
SEQEND
  5
8C
  8
0
  6
BYLAYER
 62
  256
  0
POLYLINE
  5
8D
  8
0
  6
BYLAYER
 62
  256
 66
    1
 10
0
 20
0
 30
0
 70
    1
  0
VERTEX
  5
8E
  8
0
  6
BYLAYER
 62
  256
 10
43.5224309903379
 20
-61.79245306723748
 30
0
  0
VERTEX
  5
8F
  8
0
  6
BYLAYER
 62
  256
 10
44.79243099033788
 20
-61.79245306723748
 30
0
  0
VERTEX
  5
90
  8
0
  6
BYLAYER
 62
  256
 10
44.79243099033788
 20
-69.41245306723749
 30
0
  0
VERTEX
  5
91
  8
0
  6
BYLAYER
 62
  256
 10
43.5224309903379
 20
-69.41245306723749
 30
0
  0
SEQEND
  5
92
  8
0
  6
BYLAYER
 62
  256
  0
POLYLINE
  5
93
  8
0
  6
BYLAYER
 62
  256
 66
    1
 10
0
 20
0
 30
0
 70
    1
  0
VERTEX
  5
94
  8
0
  6
BYLAYER
 62
  256
 10
46.06243099033786
 20
-61.79245306723748
 30
0
  0
VERTEX
  5
95
  8
0
  6
BYLAYER
 62
  256
 10
47.33243099033784
 20
-61.79245306723748
 30
0
  0
VERTEX
  5
96
  8
0
  6
BYLAYER
 62
  256
 10
47.33243099033784
 20
-69.41245306723749
 30
0
  0
VERTEX
  5
97
  8
0
  6
BYLAYER
 62
  256
 10
46.06243099033786
 20
-69.41245306723749
 30
0
  0
SEQEND
  5
98
  8
0
  6
BYLAYER
 62
  256
  0
POLYLINE
  5
99
  8
0
  6
BYLAYER
 62
  256
 66
    1
 10
0
 20
0
 30
0
 70
    1
  0
VERTEX
  5
9A
  8
0
  6
BYLAYER
 62
  256
 10
48.60243099033782
 20
-61.79245306723748
 30
0
  0
VERTEX
  5
9B
  8
0
  6
BYLAYER
 62
  256
 10
49.8724309903378
 20
-61.79245306723748
 30
0
  0
VERTEX
  5
9C
  8
0
  6
BYLAYER
 62
  256
 10
49.8724309903378
 20
-69.41245306723749
 30
0
  0
VERTEX
  5
9D
  8
0
  6
BYLAYER
 62
  256
 10
48.60243099033782
 20
-69.41245306723749
 30
0
  0
SEQEND
  5
9E
  8
0
  6
BYLAYER
 62
  256
  0
POLYLINE
  5
9F
  8
0
  6
BYLAYER
 62
  256
 66
    1
 10
0
 20
0
 30
0
 70
    1
  0
VERTEX
  5
A0
  8
0
  6
BYLAYER
 62
  256
 10
51.14243099033801
 20
-61.79245306723748
 30
0
  0
VERTEX
  5
A1
  8
0
  6
BYLAYER
 62
  256
 10
52.412430990338
 20
-61.79245306723748
 30
0
  0
VERTEX
  5
A2
  8
0
  6
BYLAYER
 62
  256
 10
52.412430990338
 20
-69.41245306723749
 30
0
  0
VERTEX
  5
A3
  8
0
  6
BYLAYER
 62
  256
 10
51.14243099033801
 20
-69.41245306723749
 30
0
  0
SEQEND
  5
A4
  8
0
  6
BYLAYER
 62
  256
  0
POLYLINE
  5
A5
  8
0
  6
BYLAYER
 62
  256
 66
    1
 10
0
 20
0
 30
0
 70
    1
  0
VERTEX
  5
A6
  8
0
  6
BYLAYER
 62
  256
 10
53.68243099033798
 20
-61.79245306723748
 30
0
  0
VERTEX
  5
A7
  8
0
  6
BYLAYER
 62
  256
 10
54.95243099033796
 20
-61.79245306723748
 30
0
  0
VERTEX
  5
A8
  8
0
  6
BYLAYER
 62
  256
 10
54.95243099033796
 20
-69.41245306723749
 30
0
  0
VERTEX
  5
A9
  8
0
  6
BYLAYER
 62
  256
 10
53.68243099033798
 20
-69.41245306723749
 30
0
  0
SEQEND
  5
AA
  8
0
  6
BYLAYER
 62
  256
  0
POLYLINE
  5
AB
  8
0
  6
BYLAYER
 62
  256
 66
    1
 10
0
 20
0
 30
0
 70
    1
  0
VERTEX
  5
AC
  8
0
  6
BYLAYER
 62
  256
 10
56.22243099033794
 20
-61.79245306723748
 30
0
  0
VERTEX
  5
AD
  8
0
  6
BYLAYER
 62
  256
 10
57.49243099033792
 20
-61.79245306723748
 30
0
  0
VERTEX
  5
AE
  8
0
  6
BYLAYER
 62
  256
 10
57.49243099033792
 20
-69.41245306723749
 30
0
  0
VERTEX
  5
AF
  8
0
  6
BYLAYER
 62
  256
 10
56.22243099033794
 20
-69.41245306723749
 30
0
  0
SEQEND
  5
B0
  8
0
  6
BYLAYER
 62
  256
  0
POLYLINE
  5
B1
  8
0
  6
BYLAYER
 62
  256
 66
    1
 10
0
 20
0
 30
0
 70
    1
  0
VERTEX
  5
B2
  8
0
  6
BYLAYER
 62
  256
 10
58.7624309903379
 20
-61.79245306723748
 30
0
  0
VERTEX
  5
B3
  8
0
  6
BYLAYER
 62
  256
 10
60.03243099033789
 20
-61.79245306723748
 30
0
  0
VERTEX
  5
B4
  8
0
  6
BYLAYER
 62
  256
 10
60.03243099033789
 20
-69.41245306723749
 30
0
  0
VERTEX
  5
B5
  8
0
  6
BYLAYER
 62
  256
 10
58.7624309903379
 20
-69.41245306723749
 30
0
  0
SEQEND
  5
B6
  8
0
  6
BYLAYER
 62
  256
  0
POLYLINE
  5
B7
  8
0
  6
BYLAYER
 62
  256
 66
    1
 10
0
 20
0
 30
0
 70
    1
  0
VERTEX
  5
B8
  8
0
  6
BYLAYER
 62
  256
 10
61.30243099033787
 20
-61.79245306723748
 30
0
  0
VERTEX
  5
B9
  8
0
  6
BYLAYER
 62
  256
 10
62.57243099033785
 20
-61.79245306723748
 30
0
  0
VERTEX
  5
BA
  8
0
  6
BYLAYER
 62
  256
 10
62.57243099033785
 20
-69.41245306723749
 30
0
  0
VERTEX
  5
BB
  8
0
  6
BYLAYER
 62
  256
 10
61.30243099033787
 20
-69.41245306723749
 30
0
  0
SEQEND
  5
BC
  8
0
  6
BYLAYER
 62
  256
  0
POLYLINE
  5
BD
  8
0
  6
BYLAYER
 62
  256
 66
    1
 10
0
 20
0
 30
0
 70
    1
  0
VERTEX
  5
BE
  8
0
  6
BYLAYER
 62
  256
 10
63.84243099033783
 20
-61.79245306723748
 30
0
  0
VERTEX
  5
BF
  8
0
  6
BYLAYER
 62
  256
 10
65.11243099033781
 20
-61.79245306723748
 30
0
  0
VERTEX
  5
C0
  8
0
  6
BYLAYER
 62
  256
 10
65.11243099033781
 20
-69.41245306723749
 30
0
  0
VERTEX
  5
C1
  8
0
  6
BYLAYER
 62
  256
 10
63.84243099033783
 20
-69.41245306723749
 30
0
  0
SEQEND
  5
C2
  8
0
  6
BYLAYER
 62
  256
  0
POLYLINE
  5
C3
  8
0
  6
BYLAYER
 62
  256
 66
    1
 10
0
 20
0
 30
0
 70
    1
  0
VERTEX
  5
C4
  8
0
  6
BYLAYER
 62
  256
 10
66.38243099033802
 20
-61.79245306723748
 30
0
  0
VERTEX
  5
C5
  8
0
  6
BYLAYER
 62
  256
 10
67.652430990338
 20
-61.79245306723748
 30
0
  0
VERTEX
  5
C6
  8
0
  6
BYLAYER
 62
  256
 10
67.652430990338
 20
-69.41245306723749
 30
0
  0
VERTEX
  5
C7
  8
0
  6
BYLAYER
 62
  256
 10
66.38243099033802
 20
-69.41245306723749
 30
0
  0
SEQEND
  5
C8
  8
0
  6
BYLAYER
 62
  256
  0
POLYLINE
  5
C9
  8
0
  6
BYLAYER
 62
  256
 66
    1
 10
0
 20
0
 30
0
 70
    1
  0
VERTEX
  5
CA
  8
0
  6
BYLAYER
 62
  256
 10
68.92243099033799
 20
-61.79245306723748
 30
0
  0
VERTEX
  5
CB
  8
0
  6
BYLAYER
 62
  256
 10
70.19243099033797
 20
-61.79245306723748
 30
0
  0
VERTEX
  5
CC
  8
0
  6
BYLAYER
 62
  256
 10
70.19243099033797
 20
-69.41245306723749
 30
0
  0
VERTEX
  5
CD
  8
0
  6
BYLAYER
 62
  256
 10
68.92243099033799
 20
-69.41245306723749
 30
0
  0
SEQEND
  5
CE
  8
0
  6
BYLAYER
 62
  256
  0
POLYLINE
  5
CF
  8
0
  6
BYLAYER
 62
  256
 66
    1
 10
0
 20
0
 30
0
 70
    1
  0
VERTEX
  5
D0
  8
0
  6
BYLAYER
 62
  256
 10
71.46243099033795
 20
-61.79245306723748
 30
0
  0
VERTEX
  5
D1
  8
0
  6
BYLAYER
 62
  256
 10
72.73243099033793
 20
-61.79245306723748
 30
0
  0
VERTEX
  5
D2
  8
0
  6
BYLAYER
 62
  256
 10
72.73243099033793
 20
-69.41245306723749
 30
0
  0
VERTEX
  5
D3
  8
0
  6
BYLAYER
 62
  256
 10
71.46243099033795
 20
-69.41245306723749
 30
0
  0
SEQEND
  5
D4
  8
0
  6
BYLAYER
 62
  256
  0
POLYLINE
  5
D5
  8
0
  6
BYLAYER
 62
  256
 66
    1
 10
0
 20
0
 30
0
 70
    1
  0
VERTEX
  5
D6
  8
0
  6
BYLAYER
 62
  256
 10
74.00243099033791
 20
-61.79245306723748
 30
0
  0
VERTEX
  5
D7
  8
0
  6
BYLAYER
 62
  256
 10
75.2724309903379
 20
-61.79245306723748
 30
0
  0
VERTEX
  5
D8
  8
0
  6
BYLAYER
 62
  256
 10
75.2724309903379
 20
-69.41245306723749
 30
0
  0
VERTEX
  5
D9
  8
0
  6
BYLAYER
 62
  256
 10
74.00243099033791
 20
-69.41245306723749
 30
0
  0
SEQEND
  5
DA
  8
0
  6
BYLAYER
 62
  256
  0
POLYLINE
  5
DB
  8
0
  6
BYLAYER
 62
  256
 66
    1
 10
0
 20
0
 30
0
 70
    1
  0
VERTEX
  5
DC
  8
0
  6
BYLAYER
 62
  256
 10
76.54243099033788
 20
-61.79245306723748
 30
0
  0
VERTEX
  5
DD
  8
0
  6
BYLAYER
 62
  256
 10
77.81243099033786
 20
-61.79245306723748
 30
0
  0
VERTEX
  5
DE
  8
0
  6
BYLAYER
 62
  256
 10
77.81243099033786
 20
-69.41245306723749
 30
0
  0
VERTEX
  5
DF
  8
0
  6
BYLAYER
 62
  256
 10
76.54243099033788
 20
-69.41245306723749
 30
0
  0
SEQEND
  5
E0
  8
0
  6
BYLAYER
 62
  256
  0
POLYLINE
  5
E1
  8
0
  6
BYLAYER
 62
  256
 66
    1
 10
0
 20
0
 30
0
 70
    1
  0
VERTEX
  5
E2
  8
0
  6
BYLAYER
 62
  256
 10
79.08243099033784
 20
-61.79245306723748
 30
0
  0
VERTEX
  5
E3
  8
0
  6
BYLAYER
 62
  256
 10
80.35243099033782
 20
-61.79245306723748
 30
0
  0
VERTEX
  5
E4
  8
0
  6
BYLAYER
 62
  256
 10
80.35243099033782
 20
-69.41245306723749
 30
0
  0
VERTEX
  5
E5
  8
0
  6
BYLAYER
 62
  256
 10
79.08243099033784
 20
-69.41245306723749
 30
0
  0
SEQEND
  5
E6
  8
0
  6
BYLAYER
 62
  256
  0
POLYLINE
  5
E7
  8
0
  6
BYLAYER
 62
  256
 66
    1
 10
0
 20
0
 30
0
 70
    1
  0
VERTEX
  5
E8
  8
0
  6
BYLAYER
 62
  256
 10
81.6224309903378
 20
-61.79245306723748
 30
0
  0
VERTEX
  5
E9
  8
0
  6
BYLAYER
 62
  256
 10
82.89243099033801
 20
-61.79245306723748
 30
0
  0
VERTEX
  5
EA
  8
0
  6
BYLAYER
 62
  256
 10
82.89243099033801
 20
-69.41245306723749
 30
0
  0
VERTEX
  5
EB
  8
0
  6
BYLAYER
 62
  256
 10
81.6224309903378
 20
-69.41245306723749
 30
0
  0
SEQEND
  5
EC
  8
0
  6
BYLAYER
 62
  256
  0
POLYLINE
  5
ED
  8
0
  6
BYLAYER
 62
  256
 66
    1
 10
0
 20
0
 30
0
 70
    1
  0
VERTEX
  5
EE
  8
0
  6
BYLAYER
 62
  256
 10
84.162430990338
 20
-61.79245306723748
 30
0
  0
VERTEX
  5
EF
  8
0
  6
BYLAYER
 62
  256
 10
85.43243099033798
 20
-61.79245306723748
 30
0
  0
VERTEX
  5
F0
  8
0
  6
BYLAYER
 62
  256
 10
85.43243099033798
 20
-69.41245306723749
 30
0
  0
VERTEX
  5
F1
  8
0
  6
BYLAYER
 62
  256
 10
84.162430990338
 20
-69.41245306723749
 30
0
  0
SEQEND
  5
F2
  8
0
  6
BYLAYER
 62
  256
  0
POLYLINE
  5
F3
  8
0
  6
BYLAYER
 62
  256
 66
    1
 10
0
 20
0
 30
0
 70
    1
  0
VERTEX
  5
F4
  8
0
  6
BYLAYER
 62
  256
 10
86.70243099033796
 20
-61.79245306723748
 30
0
  0
VERTEX
  5
F5
  8
0
  6
BYLAYER
 62
  256
 10
87.97243099033794
 20
-61.79245306723748
 30
0
  0
VERTEX
  5
F6
  8
0
  6
BYLAYER
 62
  256
 10
87.97243099033794
 20
-69.41245306723749
 30
0
  0
VERTEX
  5
F7
  8
0
  6
BYLAYER
 62
  256
 10
86.70243099033796
 20
-69.41245306723749
 30
0
  0
SEQEND
  5
F8
  8
0
  6
BYLAYER
 62
  256
  0
POLYLINE
  5
F9
  8
0
  6
BYLAYER
 62
  256
 66
    1
 10
0
 20
0
 30
0
 70
    1
  0
VERTEX
  5
FA
  8
0
  6
BYLAYER
 62
  256
 10
89.24243099033792
 20
-61.79245306723748
 30
0
  0
VERTEX
  5
FB
  8
0
  6
BYLAYER
 62
  256
 10
90.5124309903379
 20
-61.79245306723748
 30
0
  0
VERTEX
  5
FC
  8
0
  6
BYLAYER
 62
  256
 10
90.5124309903379
 20
-69.41245306723749
 30
0
  0
VERTEX
  5
FD
  8
0
  6
BYLAYER
 62
  256
 10
89.24243099033792
 20
-69.41245306723749
 30
0
  0
SEQEND
  5
FE
  8
0
  6
BYLAYER
 62
  256
  0
POLYLINE
  5
FF
  8
0
  6
BYLAYER
 62
  256
 66
    1
 10
0
 20
0
 30
0
 70
    1
  0
VERTEX
  5
100
  8
0
  6
BYLAYER
 62
  256
 10
28.28243099033789
 20
-61.79245306723748
 30
0
  0
VERTEX
  5
101
  8
0
  6
BYLAYER
 62
  256
 10
29.55243099033787
 20
-61.79245306723748
 30
0
  0
VERTEX
  5
102
  8
0
  6
BYLAYER
 62
  256
 10
29.55243099033787
 20
-69.41245306723749
 30
0
  0
VERTEX
  5
103
  8
0
  6
BYLAYER
 62
  256
 10
28.28243099033789
 20
-69.41245306723749
 30
0
  0
SEQEND
  5
104
  8
0
  6
BYLAYER
 62
  256
  0
POLYLINE
  5
105
  8
0
  6
BYLAYER
 62
  256
 66
    1
 10
0
 20
0
 30
0
 70
    1
  0
VERTEX
  5
106
  8
0
  6
BYLAYER
 62
  256
 10
30.82243099033785
 20
-61.79245306723748
 30
0
  0
VERTEX
  5
107
  8
0
  6
BYLAYER
 62
  256
 10
32.09243099033783
 20
-61.79245306723748
 30
0
  0
VERTEX
  5
108
  8
0
  6
BYLAYER
 62
  256
 10
32.09243099033783
 20
-69.41245306723749
 30
0
  0
VERTEX
  5
109
  8
0
  6
BYLAYER
 62
  256
 10
30.82243099033785
 20
-69.41245306723749
 30
0
  0
SEQEND
  5
10A
  8
0
  6
BYLAYER
 62
  256
  0
POLYLINE
  5
10B
  8
0
  6
BYLAYER
 62
  256
 66
    1
 10
0
 20
0
 30
0
 70
    1
  0
VERTEX
  5
10C
  8
0
  6
BYLAYER
 62
  256
 10
33.36243099033781
 20
-61.79245306723748
 30
0
  0
VERTEX
  5
10D
  8
0
  6
BYLAYER
 62
  256
 10
34.63243099033802
 20
-61.79245306723748
 30
0
  0
VERTEX
  5
10E
  8
0
  6
BYLAYER
 62
  256
 10
34.63243099033802
 20
-69.41245306723749
 30
0
  0
VERTEX
  5
10F
  8
0
  6
BYLAYER
 62
  256
 10
33.36243099033781
 20
-69.41245306723749
 30
0
  0
SEQEND
  5
110
  8
0
  6
BYLAYER
 62
  256
  0
POLYLINE
  5
111
  8
0
  6
BYLAYER
 62
  256
 66
    1
 10
0
 20
0
 30
0
 70
    1
  0
VERTEX
  5
112
  8
0
  6
BYLAYER
 62
  256
 10
38.44243099033797
 20
-61.79245306723748
 30
0
  0
VERTEX
  5
113
  8
0
  6
BYLAYER
 62
  256
 10
39.71243099033795
 20
-61.79245306723748
 30
0
  0
VERTEX
  5
114
  8
0
  6
BYLAYER
 62
  256
 10
39.71243099033795
 20
-69.41245306723749
 30
0
  0
VERTEX
  5
115
  8
0
  6
BYLAYER
 62
  256
 10
38.44243099033797
 20
-69.41245306723749
 30
0
  0
SEQEND
  5
116
  8
0
  6
BYLAYER
 62
  256
  0
POLYLINE
  5
117
  8
0
  6
BYLAYER
 62
  256
 66
    1
 10
0
 20
0
 30
0
 70
    1
  0
VERTEX
  5
118
  8
0
  6
BYLAYER
 62
  256
 10
40.98243099033793
 20
-61.79245306723748
 30
0
  0
VERTEX
  5
119
  8
0
  6
BYLAYER
 62
  256
 10
42.25243099033791
 20
-61.79245306723748
 30
0
  0
VERTEX
  5
11A
  8
0
  6
BYLAYER
 62
  256
 10
42.25243099033791
 20
-69.41245306723749
 30
0
  0
VERTEX
  5
11B
  8
0
  6
BYLAYER
 62
  256
 10
40.98243099033793
 20
-69.41245306723749
 30
0
  0
SEQEND
  5
11C
  8
0
  6
BYLAYER
 62
  256
  0
POLYLINE
  5
11D
  8
0
  6
BYLAYER
 62
  256
 66
    1
 10
0
 20
0
 30
0
 70
    1
  0
VERTEX
  5
11E
  8
0
  6
BYLAYER
 62
  256
 10
43.5224309903379
 20
-61.79245306723748
 30
0
  0
VERTEX
  5
11F
  8
0
  6
BYLAYER
 62
  256
 10
44.79243099033788
 20
-61.79245306723748
 30
0
  0
VERTEX
  5
120
  8
0
  6
BYLAYER
 62
  256
 10
44.79243099033788
 20
-69.41245306723749
 30
0
  0
VERTEX
  5
121
  8
0
  6
BYLAYER
 62
  256
 10
43.5224309903379
 20
-69.41245306723749
 30
0
  0
SEQEND
  5
122
  8
0
  6
BYLAYER
 62
  256
  0
POLYLINE
  5
123
  8
0
  6
BYLAYER
 62
  256
 66
    1
 10
0
 20
0
 30
0
 70
    1
  0
VERTEX
  5
124
  8
0
  6
BYLAYER
 62
  256
 10
46.06243099033786
 20
-61.79245306723748
 30
0
  0
VERTEX
  5
125
  8
0
  6
BYLAYER
 62
  256
 10
47.33243099033784
 20
-61.79245306723748
 30
0
  0
VERTEX
  5
126
  8
0
  6
BYLAYER
 62
  256
 10
47.33243099033784
 20
-69.41245306723749
 30
0
  0
VERTEX
  5
127
  8
0
  6
BYLAYER
 62
  256
 10
46.06243099033786
 20
-69.41245306723749
 30
0
  0
SEQEND
  5
128
  8
0
  6
BYLAYER
 62
  256
  0
POLYLINE
  5
129
  8
0
  6
BYLAYER
 62
  256
 66
    1
 10
0
 20
0
 30
0
 70
    1
  0
VERTEX
  5
12A
  8
0
  6
BYLAYER
 62
  256
 10
48.60243099033782
 20
-61.79245306723748
 30
0
  0
VERTEX
  5
12B
  8
0
  6
BYLAYER
 62
  256
 10
49.8724309903378
 20
-61.79245306723748
 30
0
  0
VERTEX
  5
12C
  8
0
  6
BYLAYER
 62
  256
 10
49.8724309903378
 20
-69.41245306723749
 30
0
  0
VERTEX
  5
12D
  8
0
  6
BYLAYER
 62
  256
 10
48.60243099033782
 20
-69.41245306723749
 30
0
  0
SEQEND
  5
12E
  8
0
  6
BYLAYER
 62
  256
  0
POLYLINE
  5
12F
  8
0
  6
BYLAYER
 62
  256
 66
    1
 10
0
 20
0
 30
0
 70
    1
  0
VERTEX
  5
130
  8
0
  6
BYLAYER
 62
  256
 10
51.14243099033801
 20
-61.79245306723748
 30
0
  0
VERTEX
  5
131
  8
0
  6
BYLAYER
 62
  256
 10
52.412430990338
 20
-61.79245306723748
 30
0
  0
VERTEX
  5
132
  8
0
  6
BYLAYER
 62
  256
 10
52.412430990338
 20
-69.41245306723749
 30
0
  0
VERTEX
  5
133
  8
0
  6
BYLAYER
 62
  256
 10
51.14243099033801
 20
-69.41245306723749
 30
0
  0
SEQEND
  5
134
  8
0
  6
BYLAYER
 62
  256
  0
POLYLINE
  5
135
  8
0
  6
BYLAYER
 62
  256
 66
    1
 10
0
 20
0
 30
0
 70
    1
  0
VERTEX
  5
136
  8
0
  6
BYLAYER
 62
  256
 10
53.68243099033798
 20
-61.79245306723748
 30
0
  0
VERTEX
  5
137
  8
0
  6
BYLAYER
 62
  256
 10
54.95243099033796
 20
-61.79245306723748
 30
0
  0
VERTEX
  5
138
  8
0
  6
BYLAYER
 62
  256
 10
54.95243099033796
 20
-69.41245306723749
 30
0
  0
VERTEX
  5
139
  8
0
  6
BYLAYER
 62
  256
 10
53.68243099033798
 20
-69.41245306723749
 30
0
  0
SEQEND
  5
13A
  8
0
  6
BYLAYER
 62
  256
  0
POLYLINE
  5
13B
  8
0
  6
BYLAYER
 62
  256
 66
    1
 10
0
 20
0
 30
0
 70
    1
  0
VERTEX
  5
13C
  8
0
  6
BYLAYER
 62
  256
 10
56.22243099033794
 20
-61.79245306723748
 30
0
  0
VERTEX
  5
13D
  8
0
  6
BYLAYER
 62
  256
 10
57.49243099033792
 20
-61.79245306723748
 30
0
  0
VERTEX
  5
13E
  8
0
  6
BYLAYER
 62
  256
 10
57.49243099033792
 20
-69.41245306723749
 30
0
  0
VERTEX
  5
13F
  8
0
  6
BYLAYER
 62
  256
 10
56.22243099033794
 20
-69.41245306723749
 30
0
  0
SEQEND
  5
140
  8
0
  6
BYLAYER
 62
  256
  0
POLYLINE
  5
141
  8
0
  6
BYLAYER
 62
  256
 66
    1
 10
0
 20
0
 30
0
 70
    1
  0
VERTEX
  5
142
  8
0
  6
BYLAYER
 62
  256
 10
58.7624309903379
 20
-61.79245306723748
 30
0
  0
VERTEX
  5
143
  8
0
  6
BYLAYER
 62
  256
 10
60.03243099033789
 20
-61.79245306723748
 30
0
  0
VERTEX
  5
144
  8
0
  6
BYLAYER
 62
  256
 10
60.03243099033789
 20
-69.41245306723749
 30
0
  0
VERTEX
  5
145
  8
0
  6
BYLAYER
 62
  256
 10
58.7624309903379
 20
-69.41245306723749
 30
0
  0
SEQEND
  5
146
  8
0
  6
BYLAYER
 62
  256
  0
POLYLINE
  5
147
  8
0
  6
BYLAYER
 62
  256
 66
    1
 10
0
 20
0
 30
0
 70
    1
  0
VERTEX
  5
148
  8
0
  6
BYLAYER
 62
  256
 10
61.30243099033787
 20
-61.79245306723748
 30
0
  0
VERTEX
  5
149
  8
0
  6
BYLAYER
 62
  256
 10
62.57243099033785
 20
-61.79245306723748
 30
0
  0
VERTEX
  5
14A
  8
0
  6
BYLAYER
 62
  256
 10
62.57243099033785
 20
-69.41245306723749
 30
0
  0
VERTEX
  5
14B
  8
0
  6
BYLAYER
 62
  256
 10
61.30243099033787
 20
-69.41245306723749
 30
0
  0
SEQEND
  5
14C
  8
0
  6
BYLAYER
 62
  256
  0
POLYLINE
  5
14D
  8
0
  6
BYLAYER
 62
  256
 66
    1
 10
0
 20
0
 30
0
 70
    1
  0
VERTEX
  5
14E
  8
0
  6
BYLAYER
 62
  256
 10
63.84243099033783
 20
-61.79245306723748
 30
0
  0
VERTEX
  5
14F
  8
0
  6
BYLAYER
 62
  256
 10
65.11243099033781
 20
-61.79245306723748
 30
0
  0
VERTEX
  5
150
  8
0
  6
BYLAYER
 62
  256
 10
65.11243099033781
 20
-69.41245306723749
 30
0
  0
VERTEX
  5
151
  8
0
  6
BYLAYER
 62
  256
 10
63.84243099033783
 20
-69.41245306723749
 30
0
  0
SEQEND
  5
152
  8
0
  6
BYLAYER
 62
  256
  0
POLYLINE
  5
153
  8
0
  6
BYLAYER
 62
  256
 66
    1
 10
0
 20
0
 30
0
 70
    1
  0
VERTEX
  5
154
  8
0
  6
BYLAYER
 62
  256
 10
66.38243099033802
 20
-61.79245306723748
 30
0
  0
VERTEX
  5
155
  8
0
  6
BYLAYER
 62
  256
 10
67.652430990338
 20
-61.79245306723748
 30
0
  0
VERTEX
  5
156
  8
0
  6
BYLAYER
 62
  256
 10
67.652430990338
 20
-69.41245306723749
 30
0
  0
VERTEX
  5
157
  8
0
  6
BYLAYER
 62
  256
 10
66.38243099033802
 20
-69.41245306723749
 30
0
  0
SEQEND
  5
158
  8
0
  6
BYLAYER
 62
  256
  0
POLYLINE
  5
159
  8
0
  6
BYLAYER
 62
  256
 66
    1
 10
0
 20
0
 30
0
 70
    1
  0
VERTEX
  5
15A
  8
0
  6
BYLAYER
 62
  256
 10
68.92243099033799
 20
-61.79245306723748
 30
0
  0
VERTEX
  5
15B
  8
0
  6
BYLAYER
 62
  256
 10
70.19243099033797
 20
-61.79245306723748
 30
0
  0
VERTEX
  5
15C
  8
0
  6
BYLAYER
 62
  256
 10
70.19243099033797
 20
-69.41245306723749
 30
0
  0
VERTEX
  5
15D
  8
0
  6
BYLAYER
 62
  256
 10
68.92243099033799
 20
-69.41245306723749
 30
0
  0
SEQEND
  5
15E
  8
0
  6
BYLAYER
 62
  256
  0
POLYLINE
  5
15F
  8
0
  6
BYLAYER
 62
  256
 66
    1
 10
0
 20
0
 30
0
 70
    1
  0
VERTEX
  5
160
  8
0
  6
BYLAYER
 62
  256
 10
71.46243099033795
 20
-61.79245306723748
 30
0
  0
VERTEX
  5
161
  8
0
  6
BYLAYER
 62
  256
 10
72.73243099033793
 20
-61.79245306723748
 30
0
  0
VERTEX
  5
162
  8
0
  6
BYLAYER
 62
  256
 10
72.73243099033793
 20
-69.41245306723749
 30
0
  0
VERTEX
  5
163
  8
0
  6
BYLAYER
 62
  256
 10
71.46243099033795
 20
-69.41245306723749
 30
0
  0
SEQEND
  5
164
  8
0
  6
BYLAYER
 62
  256
  0
POLYLINE
  5
165
  8
0
  6
BYLAYER
 62
  256
 66
    1
 10
0
 20
0
 30
0
 70
    1
  0
VERTEX
  5
166
  8
0
  6
BYLAYER
 62
  256
 10
74.00243099033791
 20
-61.79245306723748
 30
0
  0
VERTEX
  5
167
  8
0
  6
BYLAYER
 62
  256
 10
75.2724309903379
 20
-61.79245306723748
 30
0
  0
VERTEX
  5
168
  8
0
  6
BYLAYER
 62
  256
 10
75.2724309903379
 20
-69.41245306723749
 30
0
  0
VERTEX
  5
169
  8
0
  6
BYLAYER
 62
  256
 10
74.00243099033791
 20
-69.41245306723749
 30
0
  0
SEQEND
  5
16A
  8
0
  6
BYLAYER
 62
  256
  0
POLYLINE
  5
16B
  8
0
  6
BYLAYER
 62
  256
 66
    1
 10
0
 20
0
 30
0
 70
    1
  0
VERTEX
  5
16C
  8
0
  6
BYLAYER
 62
  256
 10
76.54243099033788
 20
-61.79245306723748
 30
0
  0
VERTEX
  5
16D
  8
0
  6
BYLAYER
 62
  256
 10
77.81243099033786
 20
-61.79245306723748
 30
0
  0
VERTEX
  5
16E
  8
0
  6
BYLAYER
 62
  256
 10
77.81243099033786
 20
-69.41245306723749
 30
0
  0
VERTEX
  5
16F
  8
0
  6
BYLAYER
 62
  256
 10
76.54243099033788
 20
-69.41245306723749
 30
0
  0
SEQEND
  5
170
  8
0
  6
BYLAYER
 62
  256
  0
POLYLINE
  5
171
  8
0
  6
BYLAYER
 62
  256
 66
    1
 10
0
 20
0
 30
0
 70
    1
  0
VERTEX
  5
172
  8
0
  6
BYLAYER
 62
  256
 10
79.08243099033784
 20
-61.79245306723748
 30
0
  0
VERTEX
  5
173
  8
0
  6
BYLAYER
 62
  256
 10
80.35243099033782
 20
-61.79245306723748
 30
0
  0
VERTEX
  5
174
  8
0
  6
BYLAYER
 62
  256
 10
80.35243099033782
 20
-69.41245306723749
 30
0
  0
VERTEX
  5
175
  8
0
  6
BYLAYER
 62
  256
 10
79.08243099033784
 20
-69.41245306723749
 30
0
  0
SEQEND
  5
176
  8
0
  6
BYLAYER
 62
  256
  0
POLYLINE
  5
177
  8
0
  6
BYLAYER
 62
  256
 66
    1
 10
0
 20
0
 30
0
 70
    1
  0
VERTEX
  5
178
  8
0
  6
BYLAYER
 62
  256
 10
81.6224309903378
 20
-61.79245306723748
 30
0
  0
VERTEX
  5
179
  8
0
  6
BYLAYER
 62
  256
 10
82.89243099033801
 20
-61.79245306723748
 30
0
  0
VERTEX
  5
17A
  8
0
  6
BYLAYER
 62
  256
 10
82.89243099033801
 20
-69.41245306723749
 30
0
  0
VERTEX
  5
17B
  8
0
  6
BYLAYER
 62
  256
 10
81.6224309903378
 20
-69.41245306723749
 30
0
  0
SEQEND
  5
17C
  8
0
  6
BYLAYER
 62
  256
  0
POLYLINE
  5
17D
  8
0
  6
BYLAYER
 62
  256
 66
    1
 10
0
 20
0
 30
0
 70
    1
  0
VERTEX
  5
17E
  8
0
  6
BYLAYER
 62
  256
 10
84.162430990338
 20
-61.79245306723748
 30
0
  0
VERTEX
  5
17F
  8
0
  6
BYLAYER
 62
  256
 10
85.43243099033798
 20
-61.79245306723748
 30
0
  0
VERTEX
  5
180
  8
0
  6
BYLAYER
 62
  256
 10
85.43243099033798
 20
-69.41245306723749
 30
0
  0
VERTEX
  5
181
  8
0
  6
BYLAYER
 62
  256
 10
84.162430990338
 20
-69.41245306723749
 30
0
  0
SEQEND
  5
182
  8
0
  6
BYLAYER
 62
  256
  0
POLYLINE
  5
183
  8
0
  6
BYLAYER
 62
  256
 66
    1
 10
0
 20
0
 30
0
 70
    1
  0
VERTEX
  5
184
  8
0
  6
BYLAYER
 62
  256
 10
86.70243099033796
 20
-61.79245306723748
 30
0
  0
VERTEX
  5
185
  8
0
  6
BYLAYER
 62
  256
 10
87.97243099033794
 20
-61.79245306723748
 30
0
  0
VERTEX
  5
186
  8
0
  6
BYLAYER
 62
  256
 10
87.97243099033794
 20
-69.41245306723749
 30
0
  0
VERTEX
  5
187
  8
0
  6
BYLAYER
 62
  256
 10
86.70243099033796
 20
-69.41245306723749
 30
0
  0
SEQEND
  5
188
  8
0
  6
BYLAYER
 62
  256
  0
POLYLINE
  5
189
  8
0
  6
BYLAYER
 62
  256
 66
    1
 10
0
 20
0
 30
0
 70
    1
  0
VERTEX
  5
18A
  8
0
  6
BYLAYER
 62
  256
 10
89.24243099033792
 20
-61.79245306723748
 30
0
  0
VERTEX
  5
18B
  8
0
  6
BYLAYER
 62
  256
 10
90.5124309903379
 20
-61.79245306723748
 30
0
  0
VERTEX
  5
18C
  8
0
  6
BYLAYER
 62
  256
 10
90.5124309903379
 20
-69.41245306723749
 30
0
  0
VERTEX
  5
18D
  8
0
  6
BYLAYER
 62
  256
 10
89.24243099033792
 20
-69.41245306723749
 30
0
  0
SEQEND
  5
18E
  8
0
  6
BYLAYER
 62
  256
  0
CIRCLE
  5
18F
  8
0
  6
BYLAYER
 62
  256
 10
31.29741099033781
 20
-48.36753706723754
 40
2.4500078
  0
CIRCLE
  5
190
  8
0
  6
BYLAYER
 62
  256
 10
87.49745099033798
 20
-53.46734906723758
 40
2.4500078
  0
ENDBLK
  8
0
  0
BLOCK
  8
0
  2
PCB
 70
    0
 10
0
 20
0
  3
PCB
  1

  0
ENDBLK
  8
0
  0
ENDSEC
  0
SECTION
  2
ENTITIES
  0
LINE
  5
191
  8
0
  6
BYLAYER
 62
  256
 10
0.4999999999999872
 20
-70
 11
108.5
 21
-70
  0
LINE
  5
192
  8
0
  6
BYLAYER
 62
  256
 10
-23
 20
2.8e-15
 11
-10
 21
1.2e-15
  0
LINE
  5
193
  8
0
  6
BYLAYER
 62
  256
 10
118.1088437857962
 20
0
 11
131.1088437857962
 21
0
  0
LINE
  5
194
  8
0
  6
BYLAYER
 62
  256
 10
-10.00000000000001
 20
-70
 11
-23.00000000000001
 21
-70
  0
LINE
  5
195
  8
0
  6
BYLAYER
 62
  256
 10
131.1088437857962
 20
-70
 11
118.1088437857962
 21
-70
  0
LINE
  5
196
  8
0
  6
BYLAYER
 62
  256
 10
26.39999999999998
 20
-81.00000000000001
 11
92.20002000000005
 21
-81.00000000000001
  0
LINE
  5
197
  8
0
  6
BYLAYER
 62
  256
 10
92.20002000000005
 20
-83.00000000000001
 11
26.39999999999998
 21
-83.00000000000001
  0
LINE
  5
198
  8
0
  6
BYLAYER
 62
  256
 10
26.39999999999998
 20
-83.00000000000001
 11
26.39999999999998
 21
-81.00000000000001
  0
LINE
  5
199
  8
0
  6
BYLAYER
 62
  256
 10
-10
 20
1.2e-15
 11
-8
 21
1e-15
  0
LINE
  5
19A
  8
0
  6
BYLAYER
 62
  256
 10
-23.00000000000004
 20
0
 11
-25.00000000000004
 21
0
  0
LINE
  5
19B
  8
0
  6
BYLAYER
 62
  256
 10
131.1088437857962
 20
0
 11
133.1088437857962
 21
0
  0
LINE
  5
19C
  8
0
  6
BYLAYER
 62
  256
 10
118.1088437857962
 20
0
 11
116.1088437857962
 21
0
  0
LINE
  5
19D
  8
0
  6
BYLAYER
 62
  256
 10
-8
 20
1e-15
 11
-8
 21
-8.749999999999998
  0
LINE
  5
19E
  8
0
  6
BYLAYER
 62
  256
 10
-25.00000000000004
 20
0
 11
-25.00000000000004
 21
-8.75
  0
LINE
  5
19F
  8
0
  6
BYLAYER
 62
  256
 10
133.1088437857962
 20
0
 11
133.1088437857962
 21
-8.75
  0
LINE
  5
1A0
  8
0
  6
BYLAYER
 62
  256
 10
116.1088437857962
 20
0
 11
116.1088437857962
 21
-8.75
  0
LINE
  5
1A1
  8
0
  6
BYLAYER
 62
  256
 10
-8
 20
-8.749999999999998
 11
-10
 21
-8.749999999999998
  0
LINE
  5
1A2
  8
0
  6
BYLAYER
 62
  256
 10
-25.00000000000004
 20
-8.75
 11
-23.00000000000004
 21
-8.75
  0
LINE
  5
1A3
  8
0
  6
BYLAYER
 62
  256
 10
133.1088437857962
 20
-8.75
 11
131.1088437857962
 21
-8.75
  0
LINE
  5
1A4
  8
0
  6
BYLAYER
 62
  256
 10
116.1088437857962
 20
-8.75
 11
118.1088437857962
 21
-8.75
  0
LINE
  5
1A5
  8
0
  6
BYLAYER
 62
  256
 10
-10
 20
-17.55
 11
-8.000000000000004
 21
-17.55
  0
LINE
  5
1A6
  8
0
  6
BYLAYER
 62
  256
 10
-23.00000000000004
 20
-17.55
 11
-25.00000000000004
 21
-17.55000000000001
  0
LINE
  5
1A7
  8
0
  6
BYLAYER
 62
  256
 10
131.1088437857962
 20
-17.55
 11
133.1088437857962
 21
-17.55
  0
LINE
  5
1A8
  8
0
  6
BYLAYER
 62
  256
 10
118.1088437857962
 20
-17.55
 11
116.1088437857962
 21
-17.55000000000001
  0
LINE
  5
1A9
  8
0
  6
BYLAYER
 62
  256
 10
-8.000000000000004
 20
-17.55
 11
-8.000000000000004
 21
-26.3
  0
LINE
  5
1AA
  8
0
  6
BYLAYER
 62
  256
 10
-25.00000000000004
 20
-17.55000000000001
 11
-25.00000000000004
 21
-26.3
  0
LINE
  5
1AB
  8
0
  6
BYLAYER
 62
  256
 10
133.1088437857962
 20
-17.55
 11
133.1088437857962
 21
-26.3
  0
LINE
  5
1AC
  8
0
  6
BYLAYER
 62
  256
 10
116.1088437857962
 20
-17.55000000000001
 11
116.1088437857962
 21
-26.3
  0
LINE
  5
1AD
  8
0
  6
BYLAYER
 62
  256
 10
-8.000000000000004
 20
-26.3
 11
-10
 21
-26.3
  0
LINE
  5
1AE
  8
0
  6
BYLAYER
 62
  256
 10
-25.00000000000004
 20
-26.3
 11
-23.00000000000004
 21
-26.3
  0
LINE
  5
1AF
  8
0
  6
BYLAYER
 62
  256
 10
133.1088437857962
 20
-26.3
 11
131.1088437857962
 21
-26.3
  0
LINE
  5
1B0
  8
0
  6
BYLAYER
 62
  256
 10
116.1088437857962
 20
-26.3
 11
118.1088437857962
 21
-26.3
  0
LINE
  5
1B1
  8
0
  6
BYLAYER
 62
  256
 10
-10.00000000000001
 20
-35.1
 11
-8.000000000000007
 21
-35.1
  0
LINE
  5
1B2
  8
0
  6
BYLAYER
 62
  256
 10
-23.00000000000004
 20
-35.1
 11
-25.00000000000004
 21
-35.1
  0
LINE
  5
1B3
  8
0
  6
BYLAYER
 62
  256
 10
131.1088437857962
 20
-35.1
 11
133.1088437857962
 21
-35.1
  0
LINE
  5
1B4
  8
0
  6
BYLAYER
 62
  256
 10
118.1088437857962
 20
-35.1
 11
116.1088437857962
 21
-35.1
  0
LINE
  5
1B5
  8
0
  6
BYLAYER
 62
  256
 10
-10.00000000000001
 20
-43.85
 11
-8.000000000000009
 21
-43.85
  0
LINE
  5
1B6
  8
0
  6
BYLAYER
 62
  256
 10
-23.00000000000004
 20
-43.85
 11
-25.00000000000004
 21
-43.85
  0
LINE
  5
1B7
  8
0
  6
BYLAYER
 62
  256
 10
131.1088437857962
 20
-43.85
 11
133.1088437857962
 21
-43.85
  0
LINE
  5
1B8
  8
0
  6
BYLAYER
 62
  256
 10
118.1088437857962
 20
-43.85
 11
116.1088437857962
 21
-43.85
  0
LINE
  5
1B9
  8
0
  6
BYLAYER
 62
  256
 10
-10.00000000000001
 20
-52.65000000000001
 11
-8.000000000000011
 21
-52.65000000000001
  0
LINE
  5
1BA
  8
0
  6
BYLAYER
 62
  256
 10
-23.00000000000004
 20
-52.65000000000001
 11
-25.00000000000004
 21
-52.65000000000001
  0
LINE
  5
1BB
  8
0
  6
BYLAYER
 62
  256
 10
131.1088437857962
 20
-52.65000000000001
 11
133.1088437857962
 21
-52.65000000000001
  0
LINE
  5
1BC
  8
0
  6
BYLAYER
 62
  256
 10
118.1088437857962
 20
-52.65000000000001
 11
116.1088437857962
 21
-52.65000000000001
  0
LINE
  5
1BD
  8
0
  6
BYLAYER
 62
  256
 10
-10.00000000000002
 20
-61.40000000000001
 11
-8.000000000000012
 21
-61.40000000000001
  0
LINE
  5
1BE
  8
0
  6
BYLAYER
 62
  256
 10
-23.00000000000001
 20
-61.40000000000001
 11
-25.00000000000004
 21
-61.40000000000001
  0
LINE
  5
1BF
  8
0
  6
BYLAYER
 62
  256
 10
131.1088437857962
 20
-61.40000000000001
 11
133.1088437857962
 21
-61.40000000000001
  0
LINE
  5
1C0
  8
0
  6
BYLAYER
 62
  256
 10
118.1088437857962
 20
-61.40000000000001
 11
116.1088437857962
 21
-61.40000000000001
  0
LINE
  5
1C1
  8
0
  6
BYLAYER
 62
  256
 10
-8.000000000000007
 20
-35.1
 11
-8.000000000000007
 21
-43.85
  0
LINE
  5
1C2
  8
0
  6
BYLAYER
 62
  256
 10
-25.00000000000004
 20
-35.1
 11
-25.00000000000004
 21
-43.85
  0
LINE
  5
1C3
  8
0
  6
BYLAYER
 62
  256
 10
133.1088437857962
 20
-35.1
 11
133.1088437857962
 21
-43.85
  0
LINE
  5
1C4
  8
0
  6
BYLAYER
 62
  256
 10
116.1088437857962
 20
-35.1
 11
116.1088437857962
 21
-43.85
  0
LINE
  5
1C5
  8
0
  6
BYLAYER
 62
  256
 10
-8.000000000000009
 20
-52.65
 11
-8.000000000000009
 21
-61.39999999999999
  0
LINE
  5
1C6
  8
0
  6
BYLAYER
 62
  256
 10
-25.00000000000004
 20
-52.65
 11
-25.00000000000004
 21
-61.39999999999999
  0
LINE
  5
1C7
  8
0
  6
BYLAYER
 62
  256
 10
133.1088437857962
 20
-52.65
 11
133.1088437857962
 21
-61.39999999999999
  0
LINE
  5
1C8
  8
0
  6
BYLAYER
 62
  256
 10
116.1088437857962
 20
-52.65
 11
116.1088437857962
 21
-61.39999999999999
  0
LINE
  5
1C9
  8
0
  6
BYLAYER
 62
  256
 10
-10
 20
-8.749999999999998
 11
-10
 21
-17.5
  0
LINE
  5
1CA
  8
0
  6
BYLAYER
 62
  256
 10
-23.00000000000004
 20
-8.75
 11
-23.00000000000004
 21
-17.5
  0
LINE
  5
1CB
  8
0
  6
BYLAYER
 62
  256
 10
131.1088437857962
 20
-8.75
 11
131.1088437857962
 21
-17.5
  0
LINE
  5
1CC
  8
0
  6
BYLAYER
 62
  256
 10
118.1088437857962
 20
-8.75
 11
118.1088437857962
 21
-17.5
  0
LINE
  5
1CD
  8
0
  6
BYLAYER
 62
  256
 10
-10
 20
-26.3
 11
-10.00000000000001
 21
-35.1
  0
LINE
  5
1CE
  8
0
  6
BYLAYER
 62
  256
 10
-23.00000000000004
 20
-26.3
 11
-23.00000000000004
 21
-35.1
  0
LINE
  5
1CF
  8
0
  6
BYLAYER
 62
  256
 10
131.1088437857962
 20
-26.3
 11
131.1088437857962
 21
-35.1
  0
LINE
  5
1D0
  8
0
  6
BYLAYER
 62
  256
 10
118.1088437857962
 20
-26.3
 11
118.1088437857962
 21
-35.1
  0
CIRCLE
  5
1D1
  8
0
  6
BYLAYER
 62
  256
 10
87.40004000000016
 20
-53.09981200000004
 40
1.25
  0
CIRCLE
  5
1D2
  8
0
  6
BYLAYER
 62
  256
 10
-55.80208744639808
 20
-53.09981200000004
 40
1.25
  0
LINE
  5
1D3
  8
0
  6
BYLAYER
 62
  256
 10
-10.00000000000001
 20
-52.65000000000001
 11
-10.00000000000001
 21
-43.84999999999999
  0
LINE
  5
1D4
  8
0
  6
BYLAYER
 62
  256
 10
-23.00000000000004
 20
-52.65000000000001
 11
-23.00000000000004
 21
-43.84999999999999
  0
LINE
  5
1D5
  8
0
  6
BYLAYER
 62
  256
 10
131.1088437857962
 20
-52.65000000000001
 11
131.1088437857962
 21
-43.84999999999999
  0
LINE
  5
1D6
  8
0
  6
BYLAYER
 62
  256
 10
118.1088437857962
 20
-52.65000000000001
 11
118.1088437857962
 21
-43.84999999999999
  0
LINE
  5
1D7
  8
0
  6
BYLAYER
 62
  256
 10
-10.00000000000001
 20
-70
 11
-10.00000000000001
 21
-61.40000000000001
  0
LINE
  5
1D8
  8
0
  6
BYLAYER
 62
  256
 10
-23.00000000000001
 20
-70
 11
-23.00000000000001
 21
-61.40000000000001
  0
LINE
  5
1D9
  8
0
  6
BYLAYER
 62
  256
 10
131.1088437857962
 20
-70
 11
131.1088437857962
 21
-61.40000000000001
  0
LINE
  5
1DA
  8
0
  6
BYLAYER
 62
  256
 10
118.1088437857962
 20
-70
 11
118.1088437857962
 21
-61.40000000000001
  0
LINE
  5
1DB
  8
0
  6
BYLAYER
 62
  256
 10
9.894000000000002
 20
5
 11
9.894
 21
3
  0
LINE
  5
1DC
  8
0
  6
BYLAYER
 62
  256
 10
9.894000000000004
 20
18.00000000000017
 11
9.894000000000004
 21
19.99999999999986
  0
LINE
  5
1DD
  8
0
  6
BYLAYER
 62
  256
 10
9.894000000000002
 20
-87.99999999999999
 11
9.894
 21
-89.99999999999999
  0
LINE
  5
1DE
  8
0
  6
BYLAYER
 62
  256
 10
9.894000000000004
 20
-74.99999999999982
 11
9.894000000000004
 21
-73.00000000000011
  0
LINE
  5
1DF
  8
0
  6
BYLAYER
 62
  256
 10
9.894000000000004
 20
19.99999999999986
 11
19.833
 21
20.00000000000004
  0
LINE
  5
1E0
  8
0
  6
BYLAYER
 62
  256
 10
9.894
 20
-89.99999999999999
 11
19.833
 21
-89.99999999999999
  0
LINE
  5
1E1
  8
0
  6
BYLAYER
 62
  256
 10
9.894000000000004
 20
-73.00000000000011
 11
19.833
 21
-72.99999999999994
  0
LINE
  5
1E2
  8
0
  6
BYLAYER
 62
  256
 10
19.833
 20
20.00000000000004
 11
19.833
 21
17.99999999999999
  0
LINE
  5
1E3
  8
0
  6
BYLAYER
 62
  256
 10
19.833
 20
-89.99999999999999
 11
19.833
 21
-87.99999999999999
  0
LINE
  5
1E4
  8
0
  6
BYLAYER
 62
  256
 10
19.833
 20
-72.99999999999994
 11
19.833
 21
-75
  0
LINE
  5
1E5
  8
0
  6
BYLAYER
 62
  256
 10
29.712
 20
18.00000000000004
 11
29.712
 21
20
  0
LINE
  5
1E6
  8
0
  6
BYLAYER
 62
  256
 10
29.712
 20
-87.99999999999999
 11
29.712
 21
-89.99999999999999
  0
LINE
  5
1E7
  8
0
  6
BYLAYER
 62
  256
 10
29.712
 20
-74.99999999999994
 11
29.712
 21
-72.99999999999999
  0
LINE
  5
1E8
  8
0
  6
BYLAYER
 62
  256
 10
29.712
 20
20
 11
39.651
 21
20.00000000000003
  0
LINE
  5
1E9
  8
0
  6
BYLAYER
 62
  256
 10
29.712
 20
-89.99999999999999
 11
39.651
 21
-89.99999999999999
  0
LINE
  5
1EA
  8
0
  6
BYLAYER
 62
  256
 10
29.712
 20
-72.99999999999999
 11
39.651
 21
-72.99999999999996
  0
LINE
  5
1EB
  8
0
  6
BYLAYER
 62
  256
 10
39.651
 20
20.00000000000003
 11
39.651
 21
18.00000000000001
  0
LINE
  5
1EC
  8
0
  6
BYLAYER
 62
  256
 10
39.651
 20
-89.99999999999999
 11
39.651
 21
-87.99999999999999
  0
LINE
  5
1ED
  8
0
  6
BYLAYER
 62
  256
 10
39.651
 20
-72.99999999999996
 11
39.651
 21
-74.99999999999997
  0
LINE
  5
1EE
  8
0
  6
BYLAYER
 62
  256
 10
49.52999999999999
 20
18.00000000000002
 11
49.52999999999999
 21
20.00000000000002
  0
LINE
  5
1EF
  8
0
  6
BYLAYER
 62
  256
 10
49.52999999999999
 20
-87.99999999999999
 11
49.52999999999999
 21
-89.99999999999999
  0
LINE
  5
1F0
  8
0
  6
BYLAYER
 62
  256
 10
49.52999999999999
 20
-74.99999999999997
 11
49.52999999999999
 21
-72.99999999999997
  0
LINE
  5
1F1
  8
0
  6
BYLAYER
 62
  256
 10
49.52999999999999
 20
20.00000000000002
 11
59.46899999999999
 21
20.00000000000002
  0
LINE
  5
1F2
  8
0
  6
BYLAYER
 62
  256
 10
49.52999999999999
 20
-89.99999999999999
 11
59.46899999999999
 21
-89.99999999999999
  0
LINE
  5
1F3
  8
0
  6
BYLAYER
 62
  256
 10
49.52999999999999
 20
-72.99999999999997
 11
59.46899999999999
 21
-72.99999999999997
  0
LINE
  5
1F4
  8
0
  6
BYLAYER
 62
  256
 10
59.46899999999999
 20
20.00000000000002
 11
59.46899999999999
 21
18.00000000000002
  0
LINE
  5
1F5
  8
0
  6
BYLAYER
 62
  256
 10
59.46899999999999
 20
-89.99999999999999
 11
59.46899999999999
 21
-87.99999999999999
  0
LINE
  5
1F6
  8
0
  6
BYLAYER
 62
  256
 10
59.46899999999999
 20
-72.99999999999997
 11
59.46899999999999
 21
-74.99999999999997
  0
LINE
  5
1F7
  8
0
  6
BYLAYER
 62
  256
 10
69.348
 20
18.00000000000003
 11
69.348
 21
20.00000000000002
  0
LINE
  5
1F8
  8
0
  6
BYLAYER
 62
  256
 10
69.348
 20
-87.99999999999999
 11
69.348
 21
-89.99999999999999
  0
LINE
  5
1F9
  8
0
  6
BYLAYER
 62
  256
 10
69.348
 20
-74.99999999999996
 11
69.348
 21
-72.99999999999997
  0
LINE
  5
1FA
  8
0
  6
BYLAYER
 62
  256
 10
69.348
 20
20.00000000000002
 11
79.28700000000001
 21
20.00000000000001
  0
LINE
  5
1FB
  8
0
  6
BYLAYER
 62
  256
 10
69.348
 20
-89.99999999999999
 11
79.28700000000001
 21
-89.99999999999999
  0
LINE
  5
1FC
  8
0
  6
BYLAYER
 62
  256
 10
69.348
 20
-72.99999999999997
 11
79.28700000000001
 21
-72.99999999999997
  0
LINE
  5
1FD
  8
0
  6
BYLAYER
 62
  256
 10
79.28700000000001
 20
3
 11
79.28700000000001
 21
5
  0
LINE
  5
1FE
  8
0
  6
BYLAYER
 62
  256
 10
79.28700000000001
 20
20.00000000000001
 11
79.28700000000001
 21
18.00000000000004
  0
LINE
  5
1FF
  8
0
  6
BYLAYER
 62
  256
 10
79.28700000000001
 20
-89.99999999999999
 11
79.28700000000001
 21
-87.99999999999999
  0
LINE
  5
200
  8
0
  6
BYLAYER
 62
  256
 10
79.28700000000001
 20
-72.99999999999997
 11
79.28700000000001
 21
-74.99999999999994
  0
LINE
  5
201
  8
0
  6
BYLAYER
 62
  256
 10
89.16600000000001
 20
5
 11
89.16600000000001
 21
3
  0
LINE
  5
202
  8
0
  6
BYLAYER
 62
  256
 10
89.16600000000001
 20
18.00000000000007
 11
89.16600000000001
 21
19.99999999999998
  0
LINE
  5
203
  8
0
  6
BYLAYER
 62
  256
 10
89.16600000000001
 20
-87.99999999999999
 11
89.16600000000001
 21
-89.99999999999999
  0
LINE
  5
204
  8
0
  6
BYLAYER
 62
  256
 10
89.16600000000001
 20
-74.99999999999991
 11
89.16600000000001
 21
-73
  0
LINE
  5
205
  8
0
  6
BYLAYER
 62
  256
 10
89.16600000000001
 20
3
 11
99.105
 21
3
  0
LINE
  5
206
  8
0
  6
BYLAYER
 62
  256
 10
89.16600000000001
 20
19.99999999999998
 11
99.105
 21
19.99999999999991
  0
LINE
  5
207
  8
0
  6
BYLAYER
 62
  256
 10
89.16600000000001
 20
-89.99999999999999
 11
99.105
 21
-89.99999999999999
  0
LINE
  5
208
  8
0
  6
BYLAYER
 62
  256
 10
89.16600000000001
 20
-73
 11
99.105
 21
-73.00000000000009
  0
LINE
  5
209
  8
0
  6
BYLAYER
 62
  256
 10
99.105
 20
3
 11
99.105
 21
5
  0
LINE
  5
20A
  8
0
  6
BYLAYER
 62
  256
 10
99.105
 20
19.99999999999991
 11
99.105
 21
18.00000000000016
  0
LINE
  5
20B
  8
0
  6
BYLAYER
 62
  256
 10
99.105
 20
-89.99999999999999
 11
99.105
 21
-87.99999999999999
  0
LINE
  5
20C
  8
0
  6
BYLAYER
 62
  256
 10
99.105
 20
-73.00000000000009
 11
99.105
 21
-74.99999999999983
  0
LINE
  5
20D
  8
0
  6
BYLAYER
 62
  256
 10
2.499999999999998
 20
18
 11
9.909000000000004
 21
18.00000000000008
  0
LINE
  5
20E
  8
0
  6
BYLAYER
 62
  256
 10
2.499999999999998
 20
-87.99999999999999
 11
9.909000000000002
 21
-87.99999999999999
  0
LINE
  5
20F
  8
0
  6
BYLAYER
 62
  256
 10
2.499999999999998
 20
-74.99999999999999
 11
9.909000000000004
 21
-74.99999999999991
  0
LINE
  5
210
  8
0
  6
BYLAYER
 62
  256
 10
19.818
 20
18.00000000000007
 11
29.727
 21
18.00000000000005
  0
LINE
  5
211
  8
0
  6
BYLAYER
 62
  256
 10
19.818
 20
-87.99999999999999
 11
29.727
 21
-87.99999999999999
  0
LINE
  5
212
  8
0
  6
BYLAYER
 62
  256
 10
19.818
 20
-74.99999999999991
 11
29.727
 21
-74.99999999999994
  0
LINE
  5
213
  8
0
  6
BYLAYER
 62
  256
 10
39.636
 20
18.00000000000003
 11
49.54499999999999
 21
18.00000000000002
  0
LINE
  5
214
  8
0
  6
BYLAYER
 62
  256
 10
39.636
 20
-87.99999999999999
 11
49.54499999999999
 21
-87.99999999999999
  0
LINE
  5
215
  8
0
  6
BYLAYER
 62
  256
 10
39.636
 20
-74.99999999999996
 11
49.54499999999999
 21
-74.99999999999997
  0
LINE
  5
216
  8
0
  6
BYLAYER
 62
  256
 10
59.45399999999999
 20
18.00000000000002
 11
69.363
 21
18.00000000000004
  0
LINE
  5
217
  8
0
  6
BYLAYER
 62
  256
 10
59.45399999999999
 20
-87.99999999999999
 11
69.363
 21
-87.99999999999999
  0
LINE
  5
218
  8
0
  6
BYLAYER
 62
  256
 10
59.45399999999999
 20
-74.99999999999997
 11
69.363
 21
-74.99999999999994
  0
LINE
  5
219
  8
0
  6
BYLAYER
 62
  256
 10
79.27200000000001
 20
5
 11
89.18100000000001
 21
5
  0
LINE
  5
21A
  8
0
  6
BYLAYER
 62
  256
 10
79.27200000000001
 20
17.99999999999998
 11
89.18100000000001
 21
17.99999999999997
  0
LINE
  5
21B
  8
0
  6
BYLAYER
 62
  256
 10
79.27200000000001
 20
-87.99999999999999
 11
89.18100000000001
 21
-87.99999999999999
  0
LINE
  5
21C
  8
0
  6
BYLAYER
 62
  256
 10
79.27200000000001
 20
-75
 11
89.18100000000001
 21
-75.00000000000001
  0
LINE
  5
21D
  8
0
  6
BYLAYER
 62
  256
 10
99.09
 20
5
 11
106.5
 21
5
  0
LINE
  5
21E
  8
0
  6
BYLAYER
 62
  256
 10
99.09
 20
18.00000000000011
 11
106.5
 21
18
  0
LINE
  5
21F
  8
0
  6
BYLAYER
 62
  256
 10
99.09
 20
-87.99999999999999
 11
106.5
 21
-87.99999999999999
  0
LINE
  5
220
  8
0
  6
BYLAYER
 62
  256
 10
99.09
 20
-74.99999999999989
 11
106.5
 21
-74.99999999999999
  0
LINE
  5
221
  8
0
  6
BYLAYER
 62
  256
 10
2.499999999999998
 20
5
 11
2.499999999999998
 21
18
  0
LINE
  5
222
  8
0
  6
BYLAYER
 62
  256
 10
2.499999999999998
 20
-87.99999999999999
 11
2.499999999999998
 21
-74.99999999999999
  0
LINE
  5
223
  8
0
  6
BYLAYER
 62
  256
 10
2.499999999999991
 20
-8.765000000000001
 11
2.499999999999991
 21
0
  0
LINE
  5
224
  8
0
  6
BYLAYER
 62
  256
 10
-140.7021274463983
 20
-8.765000000000001
 11
-140.7021274463983
 21
0
  0
LINE
  5
225
  8
0
  6
BYLAYER
 62
  256
 10
106.5
 20
-8.765000000000001
 11
106.5
 21
0
  0
LINE
  5
226
  8
0
  6
BYLAYER
 62
  256
 10
-36.70212744639824
 20
-8.765000000000001
 11
-36.70212744639824
 21
0
  0
LINE
  5
227
  8
0
  6
BYLAYER
 62
  256
 10
2.499999999999991
 20
-8.774999999999999
 11
2.499999999999991
 21
-8.774999999999999
  0
LINE
  5
228
  8
0
  6
BYLAYER
 62
  256
 10
-140.7021274463983
 20
-8.774999999999999
 11
-140.7021274463983
 21
-8.774999999999999
  0
LINE
  5
229
  8
0
  6
BYLAYER
 62
  256
 10
106.5
 20
-8.774999999999999
 11
106.5
 21
-8.774999999999999
  0
LINE
  5
22A
  8
0
  6
BYLAYER
 62
  256
 10
-36.70212744639824
 20
-8.774999999999999
 11
-36.70212744639824
 21
-8.774999999999999
  0
LINE
  5
22B
  8
0
  6
BYLAYER
 62
  256
 10
2.499999999999991
 20
-8.774999999999999
 11
2.499999999999991
 21
-8.774999999999999
  0
LINE
  5
22C
  8
0
  6
BYLAYER
 62
  256
 10
-140.7021274463983
 20
-8.774999999999999
 11
-140.7021274463983
 21
-8.774999999999999
  0
LINE
  5
22D
  8
0
  6
BYLAYER
 62
  256
 10
106.5
 20
-8.774999999999999
 11
106.5
 21
-8.774999999999999
  0
LINE
  5
22E
  8
0
  6
BYLAYER
 62
  256
 10
-36.70212744639824
 20
-8.774999999999999
 11
-36.70212744639824
 21
-8.774999999999999
  0
LINE
  5
22F
  8
0
  6
BYLAYER
 62
  256
 10
2.499999999999991
 20
-8.774999999999999
 11
2.499999999999991
 21
-8.774999999999999
  0
LINE
  5
230
  8
0
  6
BYLAYER
 62
  256
 10
-140.7021274463983
 20
-8.774999999999999
 11
-140.7021274463983
 21
-8.774999999999999
  0
LINE
  5
231
  8
0
  6
BYLAYER
 62
  256
 10
106.5
 20
-8.774999999999999
 11
106.5
 21
-8.774999999999999
  0
LINE
  5
232
  8
0
  6
BYLAYER
 62
  256
 10
-36.70212744639824
 20
-8.774999999999999
 11
-36.70212744639824
 21
-8.774999999999999
  0
LINE
  5
233
  8
0
  6
BYLAYER
 62
  256
 10
0.4999999999999985
 20
-8.76
 11
0.499999999999991
 21
-17.54
  0
LINE
  5
234
  8
0
  6
BYLAYER
 62
  256
 10
-142.7021274463982
 20
-8.76
 11
-142.7021274463983
 21
-17.54
  0
LINE
  5
235
  8
0
  6
BYLAYER
 62
  256
 10
108.5
 20
-8.759999999999998
 11
108.5
 21
-17.54
  0
LINE
  5
236
  8
0
  6
BYLAYER
 62
  256
 10
-34.70212744639824
 20
-8.759999999999998
 11
-34.70212744639824
 21
-17.54
  0
LINE
  5
237
  8
0
  6
BYLAYER
 62
  256
 10
2.499999999999989
 20
-17.555
 11
2.499999999999991
 21
-26.31499999999999
  0
LINE
  5
238
  8
0
  6
BYLAYER
 62
  256
 10
-140.7021274463983
 20
-17.555
 11
-140.7021274463983
 21
-26.31499999999999
  0
LINE
  5
239
  8
0
  6
BYLAYER
 62
  256
 10
106.5
 20
-17.555
 11
106.5
 21
-26.31499999999999
  0
LINE
  5
23A
  8
0
  6
BYLAYER
 62
  256
 10
-36.70212744639824
 20
-17.555
 11
-36.70212744639824
 21
-26.31499999999999
  0
LINE
  5
23B
  8
0
  6
BYLAYER
 62
  256
 10
0.4999999999999953
 20
-26.31
 11
0.4999999999999921
 21
-35.09
  0
LINE
  5
23C
  8
0
  6
BYLAYER
 62
  256
 10
-142.7021274463982
 20
-26.31
 11
-142.7021274463983
 21
-35.09
  0
LINE
  5
23D
  8
0
  6
BYLAYER
 62
  256
 10
108.5
 20
-26.31
 11
108.5
 21
-35.09
  0
LINE
  5
23E
  8
0
  6
BYLAYER
 62
  256
 10
-34.70212744639824
 20
-26.31
 11
-34.70212744639824
 21
-35.09
  0
LINE
  5
23F
  8
0
  6
BYLAYER
 62
  256
 10
2.499999999999992
 20
-35.085
 11
2.499999999999992
 21
-43.86500000000001
  0
LINE
  5
240
  8
0
  6
BYLAYER
 62
  256
 10
-140.7021274463983
 20
-35.085
 11
-140.7021274463983
 21
-43.86500000000001
  0
LINE
  5
241
  8
0
  6
BYLAYER
 62
  256
 10
106.5
 20
-35.085
 11
106.5
 21
-43.86500000000001
  0
LINE
  5
242
  8
0
  6
BYLAYER
 62
  256
 10
-36.70212744639824
 20
-35.085
 11
-36.70212744639824
 21
-43.86500000000001
  0
LINE
  5
243
  8
0
  6
BYLAYER
 62
  256
 10
0.4999999999999944
 20
-43.86
 11
0.4999999999999936
 21
-52.64
  0
LINE
  5
244
  8
0
  6
BYLAYER
 62
  256
 10
-142.7021274463982
 20
-43.86
 11
-142.7021274463982
 21
-52.64
  0
LINE
  5
245
  8
0
  6
BYLAYER
 62
  256
 10
108.5
 20
-43.86
 11
108.5
 21
-52.64
  0
LINE
  5
246
  8
0
  6
BYLAYER
 62
  256
 10
-34.70212744639824
 20
-43.86
 11
-34.70212744639824
 21
-52.64
  0
LINE
  5
247
  8
0
  6
BYLAYER
 62
  256
 10
2.499999999999994
 20
-52.635
 11
2.499999999999995
 21
-61.41500000000001
  0
LINE
  5
248
  8
0
  6
BYLAYER
 62
  256
 10
-140.7021274463982
 20
-52.635
 11
-140.7021274463982
 21
-61.41500000000001
  0
LINE
  5
249
  8
0
  6
BYLAYER
 62
  256
 10
106.5
 20
-52.635
 11
106.5
 21
-61.41500000000001
  0
LINE
  5
24A
  8
0
  6
BYLAYER
 62
  256
 10
-36.70212744639824
 20
-52.635
 11
-36.70212744639824
 21
-61.41500000000001
  0
LINE
  5
24B
  8
0
  6
BYLAYER
 62
  256
 10
0.4999999999999944
 20
-61.41
 11
0.4999999999999873
 21
-70
  0
LINE
  5
24C
  8
0
  6
BYLAYER
 62
  256
 10
-142.7021274463982
 20
-61.41
 11
-142.7021274463983
 21
-70
  0
LINE
  5
24D
  8
0
  6
BYLAYER
 62
  256
 10
108.5
 20
-61.41
 11
108.5
 21
-70
  0
LINE
  5
24E
  8
0
  6
BYLAYER
 62
  256
 10
-34.70212744639824
 20
-61.41
 11
-34.70212744639824
 21
-70
  0
LINE
  5
24F
  8
0
  6
BYLAYER
 62
  256
 10
106.5
 20
18
 11
106.5
 21
5
  0
LINE
  5
250
  8
0
  6
BYLAYER
 62
  256
 10
106.5
 20
-74.99999999999999
 11
106.5
 21
-87.99999999999999
  0
LINE
  5
251
  8
0
  6
BYLAYER
 62
  256
 10
9.884
 20
0
 11
9.884
 21
-2
  0
LINE
  5
252
  8
0
  6
BYLAYER
 62
  256
 10
-133.3181274463983
 20
0
 11
-133.3181274463983
 21
-2
  0
LINE
  5
253
  8
0
  6
BYLAYER
 62
  256
 10
-133.3181274463983
 20
-2
 11
-123.3591274463982
 21
-2
  0
LINE
  5
254
  8
0
  6
BYLAYER
 62
  256
 10
-123.3591274463982
 20
-2
 11
-123.3591274463982
 21
0
  0
LINE
  5
255
  8
0
  6
BYLAYER
 62
  256
 10
-113.5001274463982
 20
0
 11
-113.5001274463982
 21
-2
  0
LINE
  5
256
  8
0
  6
BYLAYER
 62
  256
 10
-113.5001274463982
 20
-2
 11
-103.5411274463982
 21
-2
  0
LINE
  5
257
  8
0
  6
BYLAYER
 62
  256
 10
-103.5411274463982
 20
-2
 11
-103.5411274463982
 21
0
  0
LINE
  5
258
  8
0
  6
BYLAYER
 62
  256
 10
-93.68212744639825
 20
0
 11
-93.68212744639825
 21
-2
  0
LINE
  5
259
  8
0
  6
BYLAYER
 62
  256
 10
-93.68212744639825
 20
-2
 11
-83.72312744639822
 21
-2
  0
LINE
  5
25A
  8
0
  6
BYLAYER
 62
  256
 10
-83.72312744639822
 20
-2
 11
-83.72312744639822
 21
0
  0
LINE
  5
25B
  8
0
  6
BYLAYER
 62
  256
 10
-73.86412744639824
 20
0
 11
-73.86412744639824
 21
-2
  0
LINE
  5
25C
  8
0
  6
BYLAYER
 62
  256
 10
-73.86412744639824
 20
-2
 11
-63.90512744639823
 21
-2
  0
LINE
  5
25D
  8
0
  6
BYLAYER
 62
  256
 10
-63.90512744639823
 20
-2
 11
-63.90512744639823
 21
0
  0
LINE
  5
25E
  8
0
  6
BYLAYER
 62
  256
 10
89.15599999999999
 20
0
 11
89.15599999999999
 21
-2
  0
LINE
  5
25F
  8
0
  6
BYLAYER
 62
  256
 10
-54.04612744639824
 20
0
 11
-54.04612744639824
 21
-2
  0
LINE
  5
260
  8
0
  6
BYLAYER
 62
  256
 10
89.15599999999999
 20
-2
 11
99.11500000000001
 21
-2
  0
LINE
  5
261
  8
0
  6
BYLAYER
 62
  256
 10
-54.04612744639824
 20
-2
 11
-44.08712744639823
 21
-2
  0
LINE
  5
262
  8
0
  6
BYLAYER
 62
  256
 10
99.11500000000001
 20
-2
 11
99.11500000000001
 21
0
  0
LINE
  5
263
  8
0
  6
BYLAYER
 62
  256
 10
-44.08712744639823
 20
-2
 11
-44.08712744639823
 21
0
  0
LINE
  5
264
  8
0
  6
BYLAYER
 62
  256
 10
106.5
 20
0
 11
99.11500000000001
 21
0
  0
LINE
  5
265
  8
0
  6
BYLAYER
 62
  256
 10
-36.70212744639824
 20
0
 11
-44.08712744639823
 21
0
  0
LINE
  5
266
  8
0
  6
BYLAYER
 62
  256
 10
89.15599999999999
 20
0
 11
79.29700000000001
 21
0
  0
LINE
  5
267
  8
0
  6
BYLAYER
 62
  256
 10
-54.04612744639824
 20
0
 11
-63.90512744639823
 21
0
  0
LINE
  5
268
  8
0
  6
BYLAYER
 62
  256
 10
-73.86412744639824
 20
0
 11
-83.72312744639822
 21
0
  0
LINE
  5
269
  8
0
  6
BYLAYER
 62
  256
 10
-93.68212744639825
 20
0
 11
-103.5411274463982
 21
0
  0
LINE
  5
26A
  8
0
  6
BYLAYER
 62
  256
 10
-113.5001274463982
 20
0
 11
-123.3591274463982
 21
0
  0
LINE
  5
26B
  8
0
  6
BYLAYER
 62
  256
 10
-133.3181274463983
 20
0
 11
-140.7021274463983
 21
0
  0
LINE
  5
26C
  8
0
  6
BYLAYER
 62
  256
 10
89.15599999999999
 20
-59.37491599999992
 11
99.11500000000001
 21
-59.37491599999992
  0
LINE
  5
26D
  8
0
  6
BYLAYER
 62
  256
 10
-54.04612744639824
 20
-59.37491599999992
 11
-44.08712744639823
 21
-59.37491599999992
  0
LINE
  5
26E
  8
0
  6
BYLAYER
 62
  256
 10
99.11500000000001
 20
-59.37491599999992
 11
99.11500000000001
 21
-61.42491599999993
  0
LINE
  5
26F
  8
0
  6
BYLAYER
 62
  256
 10
-44.08712744639823
 20
-59.37491599999992
 11
-44.08712744639823
 21
-61.42491599999993
  0
LINE
  5
270
  8
0
  6
BYLAYER
 62
  256
 10
99.11500000000001
 20
-61.42491599999993
 11
89.15599999999999
 21
-61.42491599999993
  0
LINE
  5
271
  8
0
  6
BYLAYER
 62
  256
 10
-44.08712744639823
 20
-61.42491599999993
 11
-54.04612744639824
 21
-61.42491599999993
  0
LINE
  5
272
  8
0
  6
BYLAYER
 62
  256
 10
89.15599999999999
 20
-61.42491599999993
 11
89.15599999999999
 21
-59.37491599999992
  0
LINE
  5
273
  8
0
  6
BYLAYER
 62
  256
 10
-54.04612744639824
 20
-61.42491599999993
 11
-54.04612744639824
 21
-59.37491599999992
  0
LINE
  5
274
  8
0
  6
BYLAYER
 62
  256
 10
79.297
 20
-59.37491599999992
 11
69.33799999999999
 21
-59.37491599999992
  0
LINE
  5
275
  8
0
  6
BYLAYER
 62
  256
 10
-63.90512744639824
 20
-59.37491599999992
 11
-73.86412744639824
 21
-59.37491599999992
  0
LINE
  5
276
  8
0
  6
BYLAYER
 62
  256
 10
69.33799999999999
 20
-59.37491599999992
 11
69.33799999999999
 21
-61.42491599999993
  0
LINE
  5
277
  8
0
  6
BYLAYER
 62
  256
 10
-73.86412744639824
 20
-59.37491599999992
 11
-73.86412744639824
 21
-61.42491599999993
  0
LINE
  5
278
  8
0
  6
BYLAYER
 62
  256
 10
69.33799999999999
 20
-61.42491599999993
 11
79.297
 21
-61.42491599999993
  0
LINE
  5
279
  8
0
  6
BYLAYER
 62
  256
 10
-73.86412744639824
 20
-61.42491599999993
 11
-63.90512744639824
 21
-61.42491599999993
  0
LINE
  5
27A
  8
0
  6
BYLAYER
 62
  256
 10
79.297
 20
-61.42491599999993
 11
79.297
 21
-59.37491599999992
  0
LINE
  5
27B
  8
0
  6
BYLAYER
 62
  256
 10
-63.90512744639824
 20
-61.42491599999993
 11
-63.90512744639824
 21
-59.37491599999992
  0
LINE
  5
27C
  8
0
  6
BYLAYER
 62
  256
 10
59.47899999999999
 20
-59.37491599999992
 11
49.51999999999998
 21
-59.37491599999992
  0
LINE
  5
27D
  8
0
  6
BYLAYER
 62
  256
 10
-83.72312744639825
 20
-59.37491599999992
 11
-93.68212744639825
 21
-59.37491599999992
  0
LINE
  5
27E
  8
0
  6
BYLAYER
 62
  256
 10
49.51999999999998
 20
-59.37491599999992
 11
49.51999999999998
 21
-61.42491599999993
  0
LINE
  5
27F
  8
0
  6
BYLAYER
 62
  256
 10
-93.68212744639825
 20
-59.37491599999992
 11
-93.68212744639825
 21
-61.42491599999993
  0
LINE
  5
280
  8
0
  6
BYLAYER
 62
  256
 10
49.51999999999998
 20
-61.42491599999993
 11
59.47899999999999
 21
-61.42491599999993
  0
LINE
  5
281
  8
0
  6
BYLAYER
 62
  256
 10
-93.68212744639825
 20
-61.42491599999993
 11
-83.72312744639825
 21
-61.42491599999993
  0
LINE
  5
282
  8
0
  6
BYLAYER
 62
  256
 10
59.47899999999999
 20
-61.42491599999993
 11
59.47899999999999
 21
-59.37491599999992
  0
LINE
  5
283
  8
0
  6
BYLAYER
 62
  256
 10
-83.72312744639825
 20
-61.42491599999993
 11
-83.72312744639825
 21
-59.37491599999992
  0
LINE
  5
284
  8
0
  6
BYLAYER
 62
  256
 10
39.661
 20
-59.37491599999992
 11
29.702
 21
-59.37491599999992
  0
LINE
  5
285
  8
0
  6
BYLAYER
 62
  256
 10
-103.5411274463982
 20
-59.37491599999992
 11
-113.5001274463982
 21
-59.37491599999992
  0
LINE
  5
286
  8
0
  6
BYLAYER
 62
  256
 10
29.702
 20
-59.37491599999992
 11
29.702
 21
-61.42491599999993
  0
LINE
  5
287
  8
0
  6
BYLAYER
 62
  256
 10
-113.5001274463982
 20
-59.37491599999992
 11
-113.5001274463982
 21
-61.42491599999993
  0
LINE
  5
288
  8
0
  6
BYLAYER
 62
  256
 10
29.702
 20
-61.42491599999993
 11
39.661
 21
-61.42491599999993
  0
LINE
  5
289
  8
0
  6
BYLAYER
 62
  256
 10
-113.5001274463982
 20
-61.42491599999993
 11
-103.5411274463982
 21
-61.42491599999993
  0
LINE
  5
28A
  8
0
  6
BYLAYER
 62
  256
 10
39.661
 20
-61.42491599999993
 11
39.66100000000001
 21
-59.37491599999993
  0
LINE
  5
28B
  8
0
  6
BYLAYER
 62
  256
 10
-103.5411274463982
 20
-61.42491599999993
 11
-103.5411274463982
 21
-59.37491599999993
  0
LINE
  5
28C
  8
0
  6
BYLAYER
 62
  256
 10
19.843
 20
-61.42491599999993
 11
19.843
 21
-59.37491599999992
  0
LINE
  5
28D
  8
0
  6
BYLAYER
 62
  256
 10
-123.3591274463982
 20
-61.42491599999993
 11
-123.3591274463982
 21
-59.37491599999992
  0
LINE
  5
28E
  8
0
  6
BYLAYER
 62
  256
 10
19.843
 20
-59.37491599999992
 11
9.883999999999999
 21
-59.37491599999992
  0
LINE
  5
28F
  8
0
  6
BYLAYER
 62
  256
 10
-123.3591274463982
 20
-59.37491599999992
 11
-133.3181274463983
 21
-59.37491599999992
  0
LINE
  5
290
  8
0
  6
BYLAYER
 62
  256
 10
9.883999999999999
 20
-59.37491599999992
 11
9.883999999999999
 21
-61.42491599999993
  0
LINE
  5
291
  8
0
  6
BYLAYER
 62
  256
 10
-133.3181274463983
 20
-59.37491599999992
 11
-133.3181274463983
 21
-61.42491599999993
  0
LINE
  5
292
  8
0
  6
BYLAYER
 62
  256
 10
9.883999999999999
 20
-61.42491599999993
 11
19.843
 21
-61.42491599999993
  0
LINE
  5
293
  8
0
  6
BYLAYER
 62
  256
 10
92.20002000000005
 20
-81.00000000000001
 11
92.20002000000005
 21
-83.00000000000001
  0
CIRCLE
  5
294
  8
0
  6
BYLAYER
 62
  256
 10
31.19999999999999
 20
-47.8
 40
1.25
  0
CIRCLE
  5
295
  8
0
  6
BYLAYER
 62
  256
 10
-112.0021274463982
 20
-47.8
 40
1.25
  0
LINE
  5
296
  8
0
  6
BYLAYER
 62
  256
 10
2.499999999999989
 20
-8.76
 11
0.4999999999999985
 21
-8.76
  0
LINE
  5
297
  8
0
  6
BYLAYER
 62
  256
 10
-140.7021274463983
 20
-8.76
 11
-142.7021274463982
 21
-8.76
  0
LINE
  5
298
  8
0
  6
BYLAYER
 62
  256
 10
106.5
 20
-8.759999999999998
 11
108.5
 21
-8.759999999999998
  0
LINE
  5
299
  8
0
  6
BYLAYER
 62
  256
 10
-36.70212744639824
 20
-8.759999999999998
 11
-34.70212744639824
 21
-8.759999999999998
  0
LINE
  5
29A
  8
0
  6
BYLAYER
 62
  256
 10
2.499999999999988
 20
-17.54
 11
0.499999999999997
 21
-17.54
  0
LINE
  5
29B
  8
0
  6
BYLAYER
 62
  256
 10
-140.7021274463983
 20
-17.54
 11
-142.7021274463982
 21
-17.54
  0
LINE
  5
29C
  8
0
  6
BYLAYER
 62
  256
 10
106.5
 20
-17.54
 11
108.5
 21
-17.54
  0
LINE
  5
29D
  8
0
  6
BYLAYER
 62
  256
 10
-36.70212744639824
 20
-17.54
 11
-34.70212744639824
 21
-17.54
  0
LINE
  5
29E
  8
0
  6
BYLAYER
 62
  256
 10
2.499999999999986
 20
-26.31
 11
0.4999999999999953
 21
-26.31
  0
LINE
  5
29F
  8
0
  6
BYLAYER
 62
  256
 10
-140.7021274463983
 20
-26.31
 11
-142.7021274463982
 21
-26.31
  0
LINE
  5
2A0
  8
0
  6
BYLAYER
 62
  256
 10
106.5
 20
-26.31
 11
108.5
 21
-26.31
  0
LINE
  5
2A1
  8
0
  6
BYLAYER
 62
  256
 10
-36.70212744639824
 20
-26.31
 11
-34.70212744639824
 21
-26.31
  0
LINE
  5
2A2
  8
0
  6
BYLAYER
 62
  256
 10
2.499999999999985
 20
-35.09
 11
0.4999999999999938
 21
-35.09
  0
LINE
  5
2A3
  8
0
  6
BYLAYER
 62
  256
 10
-140.7021274463983
 20
-35.09
 11
-142.7021274463982
 21
-35.09
  0
LINE
  5
2A4
  8
0
  6
BYLAYER
 62
  256
 10
106.5
 20
-35.09
 11
108.5
 21
-35.09
  0
LINE
  5
2A5
  8
0
  6
BYLAYER
 62
  256
 10
-36.70212744639824
 20
-35.09
 11
-34.70212744639824
 21
-35.09
  0
LINE
  5
2A6
  8
0
  6
BYLAYER
 62
  256
 10
2.499999999999983
 20
-43.86
 11
0.4999999999999921
 21
-43.86
  0
LINE
  5
2A7
  8
0
  6
BYLAYER
 62
  256
 10
-140.7021274463983
 20
-43.86
 11
-142.7021274463983
 21
-43.86
  0
LINE
  5
2A8
  8
0
  6
BYLAYER
 62
  256
 10
106.5
 20
-43.86
 11
108.5
 21
-43.86
  0
LINE
  5
2A9
  8
0
  6
BYLAYER
 62
  256
 10
-36.70212744639824
 20
-43.86
 11
-34.70212744639824
 21
-43.86
  0
LINE
  5
2AA
  8
0
  6
BYLAYER
 62
  256
 10
2.499999999999982
 20
-52.64
 11
0.4999999999999905
 21
-52.64
  0
LINE
  5
2AB
  8
0
  6
BYLAYER
 62
  256
 10
-140.7021274463983
 20
-52.64
 11
-142.7021274463983
 21
-52.64
  0
LINE
  5
2AC
  8
0
  6
BYLAYER
 62
  256
 10
106.5
 20
-52.64
 11
108.5
 21
-52.64
  0
LINE
  5
2AD
  8
0
  6
BYLAYER
 62
  256
 10
-36.70212744639824
 20
-52.64
 11
-34.70212744639824
 21
-52.64
  0
LINE
  5
2AE
  8
0
  6
BYLAYER
 62
  256
 10
2.49999999999998
 20
-61.41
 11
0.4999999999999889
 21
-61.41
  0
LINE
  5
2AF
  8
0
  6
BYLAYER
 62
  256
 10
-140.7021274463983
 20
-61.41
 11
-142.7021274463983
 21
-61.41
  0
LINE
  5
2B0
  8
0
  6
BYLAYER
 62
  256
 10
106.5
 20
-61.41
 11
108.5
 21
-61.41
  0
LINE
  5
2B1
  8
0
  6
BYLAYER
 62
  256
 10
-36.70212744639824
 20
-61.41
 11
-34.70212744639824
 21
-61.41
  0
LINE
  5
2B2
  8
0
  6
BYLAYER
 62
  256
 10
-123.3591274463982
 20
-61.42491599999995
 11
-131.2021274463983
 21
-61.42500000000001
  0
LINE
  5
2B3
  8
0
  6
BYLAYER
 62
  256
 10
-131.2021274463983
 20
-61.42500000000001
 11
-131.2021274463983
 21
-70
  0
LINE
  5
2B4
  8
0
  6
BYLAYER
 62
  256
 10
-133.3181274463983
 20
-61.42491599999993
 11
-138.7021274463982
 21
-61.42499999999999
  0
LINE
  5
2B5
  8
0
  6
BYLAYER
 62
  256
 10
-138.7021274463982
 20
-61.42499999999999
 11
-138.7021274463983
 21
-70
  0
LINE
  5
2B6
  8
0
  6
BYLAYER
 62
  256
 10
99.105
 20
-73.00000000000011
 11
99.105
 21
-73.00000000000011
  0
LINE
  5
2B7
  8
0
  6
BYLAYER
 62
  256
 10
-142.7021274463983
 20
-70
 11
-138.7021274463983
 21
-70
  0
LINE
  5
2B8
  8
0
  6
BYLAYER
 62
  256
 10
-131.2021274463983
 20
-70
 11
-34.70212744639824
 21
-70
  0
LINE
  5
2B9
  8
0
  6
BYLAYER
 62
  256
 10
14.60892000000009
 20
4.999999999999999
 11
14.60892000000009
 21
10.99999999999997
  0
LINE
  5
2BA
  8
0
  6
BYLAYER
 62
  256
 10
14.60892000000009
 20
10.99999999999997
 11
4.888920000000091
 21
10.99999999999997
  0
LINE
  5
2BB
  8
0
  6
BYLAYER
 62
  256
 10
4.888920000000091
 20
10.99999999999997
 11
4.88892000000009
 21
5.000000000000001
  0
LINE
  5
2BC
  8
0
  6
BYLAYER
 62
  256
 10
4.88892000000009
 20
5.000000000000001
 11
2.499999999999997
 21
5
  0
ARC
  5
2BD
  8
0
  6
BYLAYER
 62
  256
 10
66.1889200000001
 20
-17.08375119278609
 40
1
 50
0
 51
90
  0
ARC
  5
2BE
  8
0
  6
BYLAYER
 62
  256
 10
14.26892000000009
 20
-17.08375119278609
 40
1
 50
90
 51
180
  0
LINE
  5
2BF
  8
0
  6
BYLAYER
 62
  256
 10
66.1889200000001
 20
-16.08375119278609
 11
14.26892000000009
 21
-16.08375119278609
  0
ARC
  5
2C0
  8
0
  6
BYLAYER
 62
  256
 10
66.1889200000001
 20
-32.14578802379424
 40
1
 50
270
 51
0
  0
ARC
  5
2C1
  8
0
  6
BYLAYER
 62
  256
 10
14.26854161736007
 20
-32.14578809538095
 40
1
 50
181.5762203376436
 51
270.0216797288315
  0
LINE
  5
2C2
  8
0
  6
BYLAYER
 62
  256
 10
14.26892000000009
 20
-33.14578802379424
 11
66.1889200000001
 21
-33.14578802379424
  0
ARC
  5
2C3
  8
0
  6
BYLAYER
 62
  256
 10
35.43891731585497
 20
-36.34093452353573
 40
1
 50
90.11328217634409
 51
179.8672481064027
  0
ARC
  5
2C4
  8
0
  6
BYLAYER
 62
  256
 10
71.28889644738635
 20
-36.34093647808874
 40
1
 50
0
 51
90.00009577468968
  0
LINE
  5
2C5
  8
0
  6
BYLAYER
 62
  256
 10
35.43694017018209
 20
-35.34093647809014
 11
71.28889477580267
 21
-35.34093647809014
  0
ARC
  5
2C6
  8
0
  6
BYLAYER
 62
  256
 10
80.32892000000008
 20
-39.94461599999993
 40
1
 50
90
 51
180
  0
ARC
  5
2C7
  8
0
  6
BYLAYER
 62
  256
 10
99.2289200000001
 20
-39.94461599999995
 40
1
 50
0
 51
90
  0
ARC
  5
2C8
  8
0
  6
BYLAYER
 62
  256
 10
99.2189331712668
 20
-24.60685346889775
 40
1
 50
0
 51
89.99999999999919
  0
ARC
  5
2C9
  8
0
  6
BYLAYER
 62
  256
 10
80.34853454870952
 20
-24.63461592571359
 40
1
 50
89.97791526729566
 51
178.4091239885481
  0
ARC
  5
2CA
  8
0
  6
BYLAYER
 62
  256
 10
99.1789200000001
 20
-9.394615999999941
 40
1
 50
0
 51
90
  0
ARC
  5
2CB
  8
0
  6
BYLAYER
 62
  256
 10
80.30891999996807
 20
-9.39460799996807
 40
1
 50
90.22918372737753
 51
180.0004583675272
  0
LINE
  5
2CC
  8
0
  6
BYLAYER
 62
  256
 10
99.2289200000001
 20
-38.94461599999994
 11
80.32892000000008
 21
-38.94461599999993
  0
LINE
  5
2CD
  8
0
  6
BYLAYER
 62
  256
 10
99.1789200000001
 20
-8.394615999999941
 11
80.27892000000193
 21
-8.394615999999941
  0
LINE
  5
2CE
  8
0
  6
BYLAYER
 62
  256
 10
99.21893317126681
 20
-23.60685346889775
 11
80.34892000000009
 21
-23.60685346889775
  0
ARC
  5
2CF
  8
0
  6
BYLAYER
 62
  256
 10
35.4389200000001
 20
-51.45861599999994
 40
1
 50
180
 51
270
  0
ARC
  5
2D0
  8
0
  6
BYLAYER
 62
  256
 10
71.28891832841643
 20
-51.45861600000134
 40
1
 50
270.0000957746897
 51
0
  0
ARC
  5
2D1
  8
0
  6
BYLAYER
 62
  256
 10
80.32892000000011
 20
-47.38461599999997
 40
1
 50
180
 51
269.9999999999984
  0
ARC
  5
2D2
  8
0
  6
BYLAYER
 62
  256
 10
99.22892000000012
 20
-47.38461599999994
 40
1
 50
270
 51
0
  0
ARC
  5
2D3
  8
0
  6
BYLAYER
 62
  256
 10
99.2189331712668
 20
-32.10461599999994
 40
1
 50
270.0000000000015
 51
0
  0
ARC
  5
2D4
  8
0
  6
BYLAYER
 62
  256
 10
80.34891989870587
 20
-32.10506609825534
 40
1
 50
179.9742112687416
 51
268.2808744854668
  0
ARC
  5
2D5
  8
0
  6
BYLAYER
 62
  256
 10
99.17892000000009
 20
-16.89461599999994
 40
1
 50
270
 51
0
  0
ARC
  5
2D6
  8
0
  6
BYLAYER
 62
  256
 10
80.30892000000007
 20
-16.89461599999993
 40
1
 50
180
 51
270
  0
LINE
  5
2D7
  8
0
  6
BYLAYER
 62
  256
 10
35.4389200000001
 20
-52.45861599999994
 11
71.28892000000009
 21
-52.45861599999994
  0
LINE
  5
2D8
  8
0
  6
BYLAYER
 62
  256
 10
80.32892000000011
 20
-48.38461599999996
 11
99.2289200000001
 21
-48.38461599999994
  0
LINE
  5
2D9
  8
0
  6
BYLAYER
 62
  256
 10
80.31892000000009
 20
-33.10461599999994
 11
99.2189331712668
 21
-33.10461599999994
  0
LINE
  5
2DA
  8
0
  6
BYLAYER
 62
  256
 10
80.30892000000009
 20
-17.89461599999993
 11
99.17892000000009
 21
-17.89461599999994
  0
LINE
  5
2DB
  8
0
  6
BYLAYER
 62
  256
 10
13.26892000000009
 20
-17.08375119278609
 11
13.26892000000009
 21
-32.17329486012368
  0
LINE
  5
2DC
  8
0
  6
BYLAYER
 62
  256
 10
67.1889200000001
 20
-32.1732948601238
 11
67.18892000000004
 21
-17.08375119278609
  0
LINE
  5
2DD
  8
0
  6
BYLAYER
 62
  256
 10
34.4389200000001
 20
-51.45861599999994
 11
34.4389200000001
 21
-36.33861756797722
  0
LINE
  5
2DE
  8
0
  6
BYLAYER
 62
  256
 10
72.28892000000012
 20
-51.45861599999854
 11
72.28889477579987
 21
-36.36861432841628
  0
LINE
  5
2DF
  8
0
  6
BYLAYER
 62
  256
 10
79.32892000000008
 20
-39.94461599999993
 11
79.32892000000008
 21
-47.38461599999997
  0
LINE
  5
2E0
  8
0
  6
BYLAYER
 62
  256
 10
100.2289200000001
 20
-47.38461599999994
 11
100.2289200000001
 21
-39.94461599999995
  0
LINE
  5
2E1
  8
0
  6
BYLAYER
 62
  256
 10
100.2189331712668
 20
-32.10461599999994
 11
100.2189331712668
 21
-24.60685346889775
  0
LINE
  5
2E2
  8
0
  6
BYLAYER
 62
  256
 10
79.34892000000009
 20
-32.10461600000017
 11
79.34892000000009
 21
-24.60685346889775
  0
LINE
  5
2E3
  8
0
  6
BYLAYER
 62
  256
 10
79.30892000000007
 20
-16.89461599999993
 11
79.30892000000007
 21
-9.3946159999906
  0
LINE
  5
2E4
  8
0
  6
BYLAYER
 62
  256
 10
100.1789200000001
 20
-16.89461599999994
 11
100.1789200000001
 21
-9.394615999999941
  0
LINE
  5
2E5
  8
0
  6
BYLAYER
 62
  256
 10
9.894000000000002
 20
4.999999999999999
 11
14.60892000000009
 21
4.999999999999999
  0
LINE
  5
2E6
  8
0
  6
BYLAYER
 62
  256
 10
9.894
 20
3
 11
16.00042000000009
 21
3
  0
LINE
  5
2E7
  8
0
  6
BYLAYER
 62
  256
 10
79.28700000000001
 20
3
 11
74.66042000000009
 21
3
  0
LINE
  5
2E8
  8
0
  6
BYLAYER
 62
  256
 10
79.29700000000001
 20
-2
 11
79.29700000000001
 21
0
  0
LINE
  5
2E9
  8
0
  6
BYLAYER
 62
  256
 10
2.499999999999991
 20
0
 11
9.884
 21
0
  0
LINE
  5
2EA
  8
0
  6
BYLAYER
 62
  256
 10
16.01042000000009
 20
-2
 11
16.01042000000009
 21
0
  0
LINE
  5
2EB
  8
0
  6
BYLAYER
 62
  256
 10
74.65042000000008
 20
-2
 11
74.65042000000008
 21
0
  0
LINE
  5
2EC
  8
0
  6
BYLAYER
 62
  256
 10
74.65042000000008
 20
-2
 11
79.29700000000001
 21
-2
  0
LINE
  5
2ED
  8
0
  6
BYLAYER
 62
  256
 10
74.65042000000008
 20
-0
 11
16.01042000000009
 21
-0
  0
LINE
  5
2EE
  8
0
  6
BYLAYER
 62
  256
 10
9.884
 20
-2
 11
16.01042000000009
 21
-2
  0
LINE
  5
2EF
  8
0
  6
BYLAYER
 62
  256
 10
16.00042000000009
 20
3
 11
16.00042000000009
 21
14
  0
LINE
  5
2F0
  8
0
  6
BYLAYER
 62
  256
 10
16.00042000000009
 20
14
 11
74.66042000000009
 21
14
  0
LINE
  5
2F1
  8
0
  6
BYLAYER
 62
  256
 10
74.66042000000009
 20
3
 11
74.66042000000009
 21
14
  0
ENDSEC
  0
EOF
